<?xml version="1.0" standalone="no"?>
<!DOCTYPE svg PUBLIC "-//W3C//DTD SVG 20010904//EN"
 "http://www.w3.org/TR/2001/REC-SVG-20010904/DTD/svg10.dtd">
<svg version="1.0" xmlns="http://www.w3.org/2000/svg"
 width="700.000000pt" height="700.000000pt" viewBox="0 0 700.000000 700.000000"
 preserveAspectRatio="xMidYMid meet">
<metadata>
Created by potrace 1.14, written by Peter Selinger 2001-2017
</metadata>
<g transform="translate(0.000000,700.000000) scale(0.100000,-0.100000)"
fill="#000000" stroke="none">
<path d="M3387 6774 c-1 -1 -54 -4 -117 -8 -249 -13 -573 -79 -836 -169 -410
-141 -800 -369 -1109 -646 -59 -53 -239 -234 -275 -276 -281 -330 -460 -623
-605 -995 -86 -217 -170 -540 -190 -730 -4 -30 -8 -61 -10 -67 -23 -69 -23
-612 -1 -743 3 -14 7 -47 11 -75 7 -62 45 -278 50 -286 2 -3 7 -20 10 -37 26
-150 142 -471 245 -679 250 -506 594 -912 1048 -1236 180 -128 432 -268 632
-350 168 -69 433 -153 548 -173 15 -3 43 -9 62 -14 33 -8 185 -33 275 -45 75
-10 260 -19 380 -19 122 0 335 11 358 19 6 2 37 6 67 10 136 14 358 61 507
106 536 163 992 435 1378 824 129 130 146 149 246 275 293 368 497 779 614
1235 20 77 38 158 41 180 3 22 7 47 10 55 8 24 34 228 41 330 12 168 6 497
-11 600 -3 14 -7 48 -11 75 -57 479 -258 1001 -543 1415 -368 533 -854 926
-1467 1185 -130 55 -478 158 -610 181 -22 4 -49 8 -60 10 -84 16 -203 32 -305
40 -72 6 -368 13 -373 8z m392 -38 c47 -4 92 -9 102 -11 10 -2 44 -6 76 -10
32 -3 65 -8 73 -10 8 -2 33 -6 55 -10 81 -12 324 -75 443 -114 480 -161 900
-420 1257 -776 160 -160 240 -254 369 -435 292 -408 496 -931 562 -1435 3 -27
8 -58 10 -67 23 -125 23 -642 -1 -753 -3 -11 -7 -38 -10 -60 -11 -95 -17 -133
-26 -175 -6 -25 -13 -56 -15 -70 -3 -14 -18 -76 -35 -138 -236 -893 -859
-1663 -1674 -2070 -244 -122 -592 -243 -794 -277 -19 -3 -37 -7 -40 -9 -3 -2
-28 -7 -55 -10 -27 -4 -52 -9 -55 -11 -4 -2 -38 -6 -76 -10 -39 -4 -72 -9 -76
-11 -12 -7 -225 -17 -369 -18 -145 0 -345 10 -373 19 -6 2 -40 6 -74 10 -35 3
-68 7 -75 10 -7 2 -29 6 -48 9 -112 16 -309 65 -450 113 -659 219 -1228 640
-1627 1203 -249 351 -439 781 -524 1185 -7 33 -14 65 -15 70 -11 50 -44 300
-51 375 -13 168 -6 541 12 643 4 21 9 50 20 132 3 22 7 47 10 55 2 8 7 33 11
55 3 22 16 83 29 135 251 998 929 1801 1865 2210 300 131 726 237 1035 256 43
3 80 6 82 7 5 6 373 0 452 -7z"/>
<path d="M3457 6694 c-1 -1 -64 -4 -140 -8 -611 -27 -1269 -270 -1757 -650
-518 -402 -904 -951 -1100 -1561 -61 -191 -119 -464 -135 -640 -3 -33 -8 -78
-10 -100 -6 -51 -6 -405 -1 -465 13 -142 18 -180 26 -230 5 -30 12 -71 15 -90
62 -393 238 -838 473 -1200 59 -89 191 -267 245 -328 182 -206 349 -359 549
-505 446 -325 1014 -544 1538 -592 36 -4 79 -8 95 -11 41 -5 459 -6 476 0 8 3
48 7 89 10 274 22 638 115 930 238 1093 463 1839 1503 1935 2698 6 77 7 436 1
465 -2 11 -7 54 -10 95 -35 392 -171 835 -367 1196 -242 444 -592 834 -1004
1117 -470 322 -1062 527 -1599 553 -145 7 -246 10 -249 8z m288 -129 c235 -17
530 -79 765 -160 960 -333 1700 -1132 1959 -2117 30 -114 56 -235 66 -305 3
-21 7 -47 10 -58 2 -11 7 -51 10 -90 4 -38 8 -81 11 -95 7 -40 6 -408 -1 -490
-35 -396 -135 -750 -315 -1116 -364 -735 -988 -1280 -1770 -1546 -427 -145
-939 -196 -1370 -138 -129 18 -147 21 -285 51 -1225 267 -2176 1290 -2364
2542 -27 180 -34 274 -33 463 1 336 48 632 148 939 118 360 292 682 532 985
101 127 342 367 472 470 284 225 623 409 965 522 231 76 532 133 765 145 69 3
126 6 127 7 5 4 229 -3 308 -9z"/>
<path d="M3571 6317 c-27 -27 -1 -45 57 -38 9 2 11 -19 7 -91 -4 -51 -7 -117
-9 -146 -2 -28 -5 -54 -7 -56 -2 -2 -19 -6 -37 -9 -43 -7 -49 -14 -30 -33 19
-19 184 -31 207 -16 20 14 6 42 -21 42 -13 0 -29 4 -35 8 -13 8 -21 81 -10 98
3 6 36 11 73 12 79 3 84 6 84 37 0 13 5 27 10 30 28 17 -1 145 -33 145 -10 0
-26 4 -36 10 -28 14 -206 21 -220 7z m229 -65 c33 -32 34 -59 4 -87 -22 -21
-36 -25 -68 -23 -46 3 -55 23 -48 95 l4 41 45 -5 c25 -2 53 -12 63 -21z"/>
<path d="M3287 6293 c-8 -10 -18 -38 -22 -63 -3 -25 -15 -79 -26 -122 -10 -42
-19 -86 -19 -98 0 -11 -14 -34 -31 -50 -43 -39 -31 -53 38 -48 61 5 101 31 65
42 -52 17 -26 69 34 69 36 0 39 -2 42 -30 2 -25 -1 -32 -20 -36 -21 -6 -22 -8
-6 -23 21 -21 109 -23 140 -2 l23 16 -37 35 c-39 37 -63 84 -73 144 -3 20 -10
40 -16 44 -6 3 -10 17 -8 30 3 31 -26 95 -46 103 -22 8 -20 9 -38 -11z m43
-143 c0 -15 5 -31 10 -36 18 -18 0 -44 -30 -44 -27 0 -28 2 -20 34 4 19 5 37
2 41 -3 3 1 16 8 30 16 29 30 17 30 -25z"/>
<path d="M3988 6293 c-24 -6 -23 -25 1 -40 22 -14 21 -54 -5 -173 -24 -113
-29 -124 -55 -130 -66 -16 17 -59 106 -54 22 1 47 -4 55 -11 24 -19 119 -36
139 -25 20 10 34 57 20 66 -5 3 -9 0 -9 -5 0 -14 -27 -14 -35 -1 -3 5 -2 36 4
67 5 32 12 76 15 98 7 55 26 105 39 106 27 2 73 1 86 -2 7 -2 15 1 17 6 6 17
-172 72 -200 62 -22 -9 -20 -34 2 -41 23 -8 28 -73 9 -100 -11 -15 -21 -17
-60 -11 -25 4 -54 13 -63 19 -15 12 -15 17 -2 57 14 40 18 44 46 42 17 -2 34
2 37 7 3 6 -1 10 -9 10 -9 0 -16 6 -16 14 0 14 -54 39 -63 29 -3 -2 -14 -1
-24 4 -10 5 -26 8 -35 6z m134 -235 c43 -13 48 -26 32 -87 -9 -36 -17 -47 -39
-54 -21 -7 -30 -7 -33 2 -2 6 -13 11 -25 11 -40 0 -46 12 -41 74 2 32 7 62 10
67 5 9 33 6 96 -13z"/>
<path d="M2974 6260 c-40 -40 -47 -53 -49 -97 -2 -48 -17 -65 -50 -61 -16 3
-20 10 -19 41 1 20 -3 37 -9 37 -5 0 2 12 17 26 30 31 32 40 11 48 -15 5 -108
-9 -125 -19 -15 -9 1 -35 21 -35 10 0 20 -4 20 -10 1 -5 2 -13 3 -17 5 -21 16
-93 21 -138 3 -27 8 -64 10 -81 3 -22 -2 -40 -16 -58 -12 -15 -18 -30 -15 -34
11 -11 98 -1 138 16 48 21 50 39 4 34 -42 -5 -63 21 -72 90 -6 44 -6 45 26 51
46 10 88 -17 97 -63 4 -19 6 -39 5 -44 -6 -22 12 -46 43 -56 29 -10 38 -9 59
7 51 37 33 90 -32 95 -30 2 -37 7 -38 25 -1 27 -30 73 -45 73 -8 0 -8 4 -2 13
6 6 13 24 17 39 3 15 16 33 29 39 23 12 62 49 56 53 -2 1 -17 12 -33 24 -35
27 -47 27 -72 2z"/>
<path d="M3070 6260 c0 -5 4 -10 9 -10 6 0 13 5 16 10 3 6 -1 10 -9 10 -9 0
-16 -4 -16 -10z"/>
<path d="M2575 6196 c-16 -6 -45 -20 -63 -29 -27 -15 -31 -21 -22 -33 7 -7 16
-12 20 -9 15 9 31 -24 32 -65 1 -75 -33 -79 -77 -9 -19 30 -24 44 -16 52 19
19 12 37 -14 37 -31 0 -90 -24 -100 -40 -9 -15 11 -29 35 -23 18 5 71 -49 125
-127 32 -47 38 -102 12 -128 -15 -15 -17 -15 -17 0 0 8 -7 21 -15 28 -12 10
-20 9 -40 -4 -29 -19 -31 -36 -7 -64 31 -37 71 -36 129 1 35 23 49 37 42 44
-12 12 -12 10 -6 173 5 121 6 125 33 153 28 28 28 29 10 43 -22 16 -20 16 -61
0z"/>
<path d="M4105 6190 c-3 -5 -1 -10 4 -10 6 0 11 5 11 10 0 6 -2 10 -4 10 -3 0
-8 -4 -11 -10z"/>
<path d="M4441 6172 c-46 -23 -64 -73 -45 -121 12 -30 12 -37 -1 -57 -8 -13
-15 -30 -15 -37 0 -26 -29 -42 -51 -29 -16 10 -21 8 -34 -12 -21 -32 -10 -75
23 -87 41 -16 58 -2 94 74 32 67 37 72 66 72 40 0 70 -36 47 -55 -8 -7 -15
-19 -15 -26 0 -8 -4 -14 -9 -14 -5 0 -7 -9 -4 -21 5 -19 3 -20 -31 -14 -34 7
-36 6 -36 -19 0 -29 12 -37 98 -60 54 -15 65 -15 83 -3 20 14 19 15 -16 37
-29 18 -36 28 -31 44 19 78 37 138 54 185 19 51 22 55 54 55 26 1 34 5 36 24
2 12 2 22 -1 22 -2 0 -41 14 -87 30 -95 34 -131 37 -179 12z m108 -37 c6 -3
11 -13 11 -20 0 -9 6 -12 15 -9 19 8 19 -7 1 -51 -15 -34 -61 -58 -75 -39 -3
5 -19 15 -34 22 -26 11 -28 16 -24 49 3 20 13 43 23 50 18 13 61 12 83 -2z"/>
<path d="M4283 6140 c-2 -19 8 -26 20 -14 7 7 -2 34 -12 34 -4 0 -7 -9 -8 -20z"/>
<path d="M4270 6046 c0 -8 5 -18 10 -21 6 -3 10 3 10 14 0 12 -4 21 -10 21 -5
0 -10 -6 -10 -14z"/>
<path d="M2138 6037 c-18 -5 -35 -12 -38 -16 -3 -4 -31 -15 -62 -26 -37 -12
-61 -27 -69 -42 -17 -32 -6 -39 40 -21 l38 15 27 -66 c15 -36 29 -75 31 -86 1
-12 12 -39 24 -60 28 -52 27 -60 -9 -85 -24 -17 -28 -25 -20 -35 10 -12 24
-12 65 -1 6 1 26 9 46 18 20 9 45 19 57 22 27 9 43 37 32 56 -7 11 -14 12 -34
2 -33 -15 -48 -9 -69 27 -23 39 -21 60 6 71 59 26 102 58 99 76 -2 11 -4 36
-6 57 -2 27 -13 48 -36 72 -34 36 -54 39 -122 22z m99 -66 c7 -9 13 -26 13
-37 0 -26 -46 -74 -71 -74 -11 0 -22 -1 -26 -1 -11 -2 -65 102 -58 110 31 31
119 32 142 2z"/>
<path d="M1728 5834 c-89 -50 -109 -69 -92 -87 3 -3 15 -1 25 6 15 9 22 8 39
-10 11 -12 20 -27 20 -33 0 -5 18 -47 40 -91 46 -93 48 -107 20 -137 -24 -26
-26 -59 -3 -92 20 -29 33 -40 51 -40 17 0 32 42 20 57 -18 22 29 65 125 113
25 12 29 12 55 -13 32 -30 62 -22 62 18 0 16 6 25 15 25 8 0 15 4 15 9 0 5 -9
7 -19 4 -12 -3 -29 4 -42 16 -14 13 -36 21 -56 21 -18 0 -33 3 -33 8 0 4 -18
30 -39 58 -21 29 -42 62 -46 75 -4 13 -16 43 -27 67 -14 31 -16 47 -9 56 11
14 5 26 -13 26 -6 0 -55 -25 -108 -56z m109 -94 c58 -100 86 -167 79 -186 -4
-9 -9 -14 -12 -11 -4 3 -13 -1 -21 -9 -17 -17 -33 -10 -33 14 0 9 -9 31 -21
47 -25 37 -89 173 -89 190 0 8 6 15 13 18 32 11 49 -1 84 -63z"/>
<path d="M3358 5805 c-2 -1 -40 -6 -84 -9 -79 -7 -112 -11 -164 -21 -14 -3
-38 -8 -54 -11 -121 -22 -305 -77 -432 -129 -695 -287 -1211 -898 -1374 -1627
-10 -42 -15 -80 -12 -83 3 -3 16 -5 28 -5 20 0 25 9 40 78 16 74 84 296 103
337 6 11 32 67 59 125 58 125 139 259 236 390 89 121 323 355 446 446 337 250
705 396 1117 441 130 15 445 8 549 -11 11 -2 39 -7 64 -12 25 -4 47 -8 50 -9
3 0 23 -4 45 -9 239 -46 551 -179 775 -329 70 -47 140 -98 166 -122 6 -5 34
-29 61 -52 136 -115 283 -280 385 -433 39 -58 76 -104 82 -102 6 2 17 9 24 16
27 26 -161 280 -343 461 -189 189 -376 321 -620 440 -115 57 -395 162 -395
149 0 -2 -8 -1 -17 5 -21 10 -196 47 -268 56 -27 3 -66 8 -85 12 -36 5 -377
13 -382 8z"/>
<path d="M3795 5054 c-38 -38 5 -81 55 -54 17 9 19 14 9 33 -21 39 -39 45 -64
21z"/>
<path d="M4295 5024 c-33 -7 -77 -16 -99 -19 -77 -13 -109 -85 -63 -142 14
-17 24 -44 26 -67 1 -22 4 -43 7 -48 3 -4 -2 -8 -10 -8 -9 0 -16 5 -16 10 0 7
-6 7 -20 0 -38 -20 -14 -62 36 -62 34 0 73 37 56 54 -16 16 -15 63 1 77 8 6
17 8 20 5 3 -4 13 1 22 10 25 24 41 19 52 -17 12 -40 7 -57 -17 -57 -21 0 -44
-25 -36 -38 3 -6 29 -8 58 -7 29 2 68 4 86 4 24 1 35 7 41 24 11 29 -22 51
-50 34 -10 -6 -21 -8 -25 -5 -10 10 -26 97 -28 147 -1 36 3 45 20 51 18 7 34
29 34 45 0 16 -43 20 -95 9z m-12 -96 c2 -18 4 -34 2 -35 -6 -8 -93 -10 -105
-3 -20 12 -4 58 23 63 63 12 75 8 80 -25z"/>
<path d="M3756 4940 c-44 -6 -54 -20 -31 -44 12 -11 21 -13 34 -6 12 6 22 5
29 -2 9 -9 12 -9 12 0 0 7 6 12 14 12 13 0 22 -44 30 -151 l4 -45 -56 -15
c-59 -15 -72 -28 -49 -51 16 -15 69 -12 210 15 72 13 92 29 76 59 -11 20 -44
23 -83 8 -32 -12 -44 7 -56 89 -10 62 -16 93 -25 121 -6 20 -25 22 -109 10z"/>
<path d="M3514 4881 c-3 -3 -24 -7 -47 -8 -23 -1 -55 -4 -72 -6 -16 -3 -40 -5
-53 -6 -14 -1 -26 -10 -31 -23 -10 -26 4 -49 24 -42 8 3 23 -3 33 -13 31 -30
39 -180 9 -170 -18 6 -58 -50 -59 -80 -1 -59 1 -65 25 -61 17 2 22 10 22 32 1
32 3 34 105 56 83 18 112 12 122 -27 15 -57 47 -37 53 32 3 39 -16 65 -49 69
-33 3 -38 8 -42 46 -3 28 -5 38 -20 101 -5 22 0 30 28 49 18 13 35 25 38 28 8
6 -33 26 -57 28 -13 0 -25 -2 -29 -5z m-40 -113 c7 -13 17 -51 20 -84 6 -51 4
-63 -9 -68 -29 -11 -35 -7 -35 27 0 17 -4 46 -9 64 -6 19 -5 35 1 41 6 6 6 12
-1 16 -16 10 -13 26 4 26 8 0 21 -10 29 -22z"/>
<path d="M3145 4818 c-22 -5 -56 -17 -75 -26 -19 -8 -39 -14 -45 -12 -30 9
-121 -4 -141 -21 -22 -18 -11 -33 27 -39 20 -3 38 -13 44 -25 5 -11 22 -33 37
-48 37 -40 81 -131 74 -153 -4 -11 -13 -28 -21 -38 -14 -19 -15 -19 -39 7 -30
33 -50 34 -70 6 -19 -28 -10 -78 18 -101 26 -22 75 -23 104 -2 12 8 22 12 22
7 0 -4 7 1 15 11 8 11 25 20 37 21 12 1 23 7 24 14 2 7 0 7 -3 1 -7 -14 -33 7
-33 27 0 10 6 12 22 8 17 -6 20 -4 15 10 -4 9 -7 19 -7 21 0 3 -4 3 -9 -1 -5
-3 -12 -1 -16 5 -3 5 1 10 10 10 12 0 14 6 8 28 -9 35 -6 66 5 70 6 2 8 25 5
52 -2 32 1 59 11 77 15 29 50 63 65 63 5 0 14 7 21 15 10 12 9 15 -6 15 -11 0
-28 2 -39 4 -11 2 -38 -1 -60 -6z m-55 -77 c7 -1 2 -112 -6 -120 -9 -9 -53 50
-48 64 3 7 -2 15 -10 18 -9 4 -16 13 -16 21 0 9 6 13 14 10 8 -3 17 -1 20 4 3
6 14 9 24 7 9 -2 19 -4 22 -4z"/>
<path d="M2591 4719 c-46 -9 -88 -22 -94 -28 -14 -14 -9 -93 6 -103 15 -9 35
8 39 35 2 14 11 23 26 25 18 3 22 -1 22 -26 0 -16 7 -35 15 -42 23 -19 31 -97
11 -119 -30 -33 -21 -51 27 -51 58 0 98 19 95 45 -2 13 -10 19 -23 18 -24 -2
-37 19 -40 66 -3 47 -13 99 -21 112 -4 7 4 9 22 7 23 -2 29 -8 29 -27 0 -14 6
-26 13 -29 6 -2 12 1 12 7 0 6 8 11 18 11 28 0 30 6 17 56 -18 71 -30 74 -174
43z"/>
<path d="M2180 4639 c-55 -34 -75 -66 -76 -129 -1 -41 4 -62 19 -85 31 -44 53
-66 68 -69 8 -2 30 -6 49 -10 43 -9 132 23 161 57 24 29 24 64 -1 77 -16 9
-23 6 -37 -11 -33 -40 -57 -59 -73 -59 -9 0 -21 -5 -27 -11 -7 -7 -21 -6 -47
5 -35 15 -36 17 -30 54 4 25 2 42 -5 46 -18 11 -13 51 9 71 11 10 20 15 20 12
0 -3 14 -2 31 3 24 7 31 6 37 -8 22 -59 90 -57 78 1 -9 46 -34 65 -91 72 -40
4 -57 1 -85 -16z"/>
<path d="M5849 4446 c-2 -2 -24 -7 -49 -10 -121 -16 -361 -65 -375 -76 -27
-22 -17 -48 24 -70 22 -11 42 -24 45 -29 8 -13 52 -246 71 -376 4 -22 8 -47
10 -55 2 -8 7 -31 10 -50 3 -19 8 -42 10 -50 2 -8 7 -35 10 -60 4 -25 10 -63
15 -85 15 -63 12 -79 -20 -115 -16 -18 -30 -42 -30 -52 0 -19 40 -41 62 -33 7
2 27 6 43 8 27 4 113 20 172 31 54 11 119 20 126 18 10 -3 7 25 -23 193 -11
66 -30 172 -41 235 -11 63 -29 160 -39 215 -16 83 -31 184 -32 205 -1 25 7 41
36 72 24 26 33 43 29 57 -3 12 -9 21 -13 21 -5 0 -15 2 -22 5 -8 3 -16 4 -19
1z"/>
<path d="M5275 4345 c-5 -2 -43 -9 -83 -15 l-73 -12 6 -47 c3 -25 10 -47 15
-49 31 -11 67 -55 101 -126 22 -44 43 -84 48 -89 16 -16 50 -15 66 3 16 18 16
26 -5 147 -12 70 -23 135 -25 143 -2 8 -4 23 -4 33 -1 16 -20 21 -46 12z"/>
<path d="M5035 4303 c-41 -8 -171 -32 -209 -38 -21 -3 -49 -8 -61 -11 -24 -6
-28 27 30 -299 15 -82 29 -160 31 -173 2 -12 8 -48 14 -80 19 -116 29 -172 37
-207 2 -11 6 -42 9 -70 5 -47 3 -52 -30 -88 -41 -42 -43 -49 -20 -72 18 -17
12 -18 189 14 61 11 128 23 150 26 73 12 129 26 142 37 27 22 14 48 -31 68
-38 16 -58 33 -62 50 0 3 -4 28 -9 55 -4 28 -9 59 -12 70 -2 11 -12 70 -23
130 -10 61 -26 151 -35 200 -9 50 -18 104 -21 120 -2 17 -7 41 -9 55 -12 60
-16 79 -26 139 -5 36 -12 68 -15 73 -5 8 -6 8 -39 1z"/>
<path d="M4580 4223 c-47 -8 -86 -16 -87 -17 -4 -3 33 -214 48 -279 12 -52 32
-69 66 -56 26 9 30 23 39 119 7 82 17 116 41 142 13 14 14 53 4 106 -1 4 -21
1 -111 -15z"/>
<path d="M4045 4129 c-55 -10 -114 -21 -131 -24 -29 -5 -32 -10 -38 -49 -7
-44 -4 -53 57 -186 96 -211 167 -384 160 -391 -4 -4 -37 -12 -72 -18 -35 -6
-65 -12 -66 -13 -2 -2 -5 -26 -9 -54 l-6 -51 78 13 c42 7 89 15 103 18 20 4
28 -1 42 -27 38 -74 40 -87 12 -128 -48 -69 0 -97 120 -70 22 5 58 12 80 15
117 18 213 39 233 52 35 22 27 49 -21 78 -43 25 -45 28 -185 343 -77 175 -160
362 -183 416 -29 66 -47 97 -58 96 -9 -1 -61 -10 -116 -20z"/>
<path d="M5960 4072 c-25 -5 -35 -12 -34 -24 3 -64 4 -68 25 -68 47 0 82 -42
94 -111 3 -19 10 -59 16 -89 28 -151 24 -201 -20 -228 -19 -11 -27 -23 -24
-37 2 -11 4 -28 5 -38 2 -15 9 -17 46 -12 64 9 170 51 218 88 83 62 118 168
94 284 -23 110 -64 169 -145 211 -41 21 -66 26 -145 28 -52 1 -111 0 -130 -4z"/>
<path d="M3285 3994 c-71 -13 -159 -28 -194 -34 -36 -6 -68 -13 -73 -16 -16
-10 -8 -37 24 -76 31 -40 42 -81 83 -318 2 -14 13 -79 25 -145 11 -66 27 -156
35 -200 20 -112 19 -120 -20 -164 -19 -21 -35 -46 -35 -55 0 -19 35 -35 65
-30 11 2 61 10 110 19 50 9 115 20 145 25 127 22 160 32 170 51 11 20 -6 42
-60 79 -20 14 -35 62 -54 180 -3 19 -8 46 -10 60 -35 188 -86 490 -86 510 0
15 11 36 24 49 34 32 39 58 13 76 -12 8 -24 15 -27 14 -3 0 -63 -12 -135 -25z"/>
<path d="M2800 3908 c-19 -4 -51 -10 -70 -13 -19 -3 -48 -8 -65 -11 -16 -3
-37 -6 -45 -8 -101 -17 -117 -52 -44 -97 40 -25 50 -41 58 -95 4 -22 9 -51 11
-64 3 -14 8 -41 11 -60 31 -199 140 -266 387 -237 66 8 78 12 72 30 -2 7 -6
24 -9 40 -5 20 -12 27 -30 27 -33 0 -71 48 -85 107 -6 26 -18 102 -26 167 -17
127 -40 198 -72 215 -22 11 -40 11 -93 -1z"/>
<path d="M3860 3895 c-1 -16 -3 -41 -5 -55 -1 -14 -6 -68 -9 -120 -4 -52 -9
-108 -11 -125 -2 -16 -7 -64 -10 -105 -21 -282 -29 -309 -100 -356 -58 -38
-11 -90 65 -73 19 4 57 11 85 14 68 9 116 27 129 47 8 13 5 23 -14 43 -13 14
-30 25 -37 25 -8 0 -25 11 -39 25 -27 27 -28 48 -9 220 5 44 11 106 21 235 3
47 7 87 9 90 1 3 -14 41 -35 85 -33 69 -38 76 -40 50z"/>
<path d="M2295 3819 c-49 -10 -101 -18 -115 -19 -42 -1 -51 -13 -44 -57 6 -40
7 -41 49 -41 68 -2 106 -24 175 -101 63 -71 87 -84 109 -57 9 11 9 29 1 78 -7
35 -14 77 -16 93 -3 17 -9 51 -15 78 -13 55 -9 54 -144 26z"/>
<path d="M2050 3776 c-3 -2 -27 -7 -54 -10 -60 -8 -195 -33 -258 -47 -33 -7
-49 -17 -54 -31 -6 -21 20 -58 42 -58 26 0 52 -42 59 -93 4 -29 8 -59 10 -67
13 -61 91 -507 100 -572 7 -44 5 -51 -24 -83 -35 -40 -38 -57 -15 -76 15 -12
90 -6 209 16 101 19 188 35 191 35 2 0 1 6 -1 13 -2 6 -16 77 -29 157 -14 80
-41 235 -61 345 -20 110 -38 214 -41 230 -32 196 -42 240 -55 243 -8 1 -17 1
-19 -2z"/>
<path d="M1495 3679 c-22 -4 -53 -10 -70 -13 -46 -9 -72 -14 -175 -31 -52 -10
-102 -18 -110 -20 -8 -2 -26 -4 -38 -4 -22 -1 -23 -4 -17 -43 4 -24 9 -44 10
-46 2 -2 27 1 56 6 30 6 55 9 57 8 1 -2 6 -27 12 -57 18 -101 20 -114 51 -289
16 -96 32 -188 35 -205 5 -29 31 -171 39 -208 2 -9 -6 -40 -18 -67 -19 -46
-20 -52 -5 -66 16 -16 16 -16 223 21 17 3 70 13 118 21 75 14 90 20 99 40 12
25 -3 54 -27 54 -7 0 -23 8 -35 18 -20 16 -31 53 -55 192 -2 14 -11 66 -19
115 -9 50 -18 100 -20 111 -2 12 -7 37 -10 55 -3 19 -14 84 -26 144 -25 140
-25 147 5 184 31 36 38 66 21 80 -14 12 -35 11 -101 0z"/>
<path d="M1019 3596 c-2 -2 -78 -16 -169 -31 -91 -15 -175 -34 -188 -42 -34
-21 -25 -54 21 -76 38 -17 51 -38 60 -93 6 -38 66 -373 71 -399 3 -18 12 -68
22 -130 1 -11 8 -48 14 -81 12 -68 7 -89 -27 -121 -42 -40 -19 -88 38 -78 13
3 101 18 194 34 94 16 178 33 188 36 25 10 21 42 -9 68 -14 12 -30 29 -35 38
-7 14 -45 211 -66 344 -2 17 -22 127 -43 245 -36 202 -47 265 -49 283 -1 7
-15 10 -22 3z"/>
<path d="M2292 3518 c-7 -7 -12 -21 -12 -32 -1 -37 -28 -97 -49 -113 -20 -14
-22 -28 -12 -104 1 -4 12 -10 25 -13 13 -3 47 -33 75 -65 54 -62 75 -69 90
-28 4 11 -1 68 -11 126 -10 58 -21 122 -24 141 -14 85 -48 122 -82 88z"/>
<path d="M5725 3166 c-11 -83 -43 -224 -76 -331 -111 -359 -292 -659 -559
-925 -363 -362 -814 -580 -1332 -644 -143 -17 -392 -17 -528 0 -678 85 -1257
449 -1622 1019 -35 55 -72 117 -83 138 -21 40 -31 44 -59 24 -16 -12 -13 -20
40 -107 387 -648 1029 -1061 1764 -1137 94 -10 341 -10 440 -1 66 7 102 12
235 34 156 26 389 105 571 194 563 275 991 772 1182 1372 31 94 76 289 86 364
5 40 4 42 -24 46 -28 4 -29 3 -35 -46z"/>
<path d="M2486 3138 c-9 -12 -16 -30 -16 -40 0 -31 -41 -128 -63 -149 -22 -21
-83 -55 -102 -58 -8 -2 -10 -80 -2 -88 4 -4 301 47 306 53 9 8 -40 258 -54
281 -19 29 -49 29 -69 1z"/>
<path d="M5011 2786 c-57 -14 -72 -36 -49 -76 14 -24 14 -31 3 -40 -17 -14
-16 -50 3 -72 18 -21 61 -23 105 -4 18 7 47 11 63 9 34 -5 49 14 38 49 -4 15
-9 17 -20 7 -11 -9 -16 -6 -24 16 -5 14 -10 35 -10 45 0 21 -20 70 -29 71 -3
0 -13 2 -21 3 -8 2 -35 -2 -59 -8z m63 -35 c7 -11 -55 -51 -75 -50 -10 0 -11
2 -2 6 8 3 11 14 7 29 -6 22 -3 24 29 24 20 0 38 -4 41 -9z m6 -91 c0 -35 -72
-56 -84 -24 -4 10 4 19 27 29 44 19 57 18 57 -5z"/>
<path d="M4777 2733 c-14 -13 -6 -24 16 -21 19 3 22 -2 25 -34 5 -55 -21 -108
-52 -108 -21 0 -26 6 -32 38 -19 107 -18 107 -48 110 -40 5 -57 -14 -24 -27
26 -10 30 -19 43 -100 7 -43 12 -50 39 -61 13 -5 28 -3 42 5 12 8 46 15 75 17
42 2 55 7 57 21 2 9 -2 17 -10 17 -28 0 -40 19 -54 83 -15 63 -17 67 -43 67
-15 0 -31 -3 -34 -7z"/>
<path d="M4224 2708 c-9 -14 6 -28 31 -28 21 0 35 -17 35 -41 0 -6 -14 -7 -32
-4 -25 5 -38 1 -55 -15 -13 -11 -23 -24 -24 -28 0 -4 -3 -18 -5 -32 -7 -36 2
-64 32 -100 28 -32 65 -38 91 -14 6 6 23 9 36 7 25 -5 67 11 67 25 0 4 -13 12
-29 18 -22 9 -30 20 -36 50 -5 22 -9 41 -10 44 -1 3 -5 25 -9 50 -13 79 -14
81 -52 78 -20 -1 -38 -6 -40 -10z m40 -110 c36 -16 45 -68 18 -102 l-19 -25
-25 22 c-35 31 -40 53 -23 88 18 33 16 33 49 17z"/>
<path d="M3980 2599 c-50 -18 -77 -108 -49 -161 14 -27 74 -51 109 -43 38 8
61 36 67 82 6 51 -10 89 -49 113 -36 22 -42 23 -78 9z m64 -44 c38 -39 25
-109 -22 -118 -29 -6 -47 9 -62 49 -13 34 -4 63 23 74 32 13 44 12 61 -5z"/>
<path d="M4497 2582 c-31 -34 -16 -79 30 -87 43 -7 70 57 37 89 -21 21 -47 20
-67 -2z"/>
<path d="M3415 2577 c-4 -8 -5 -27 -3 -42 2 -21 -2 -28 -15 -31 -40 -6 -50
-13 -38 -28 9 -10 20 -12 42 -6 24 7 29 6 30 -8 3 -83 11 -119 32 -139 21 -21
24 -21 54 -7 31 15 43 38 43 82 0 30 -13 28 -43 -8 -24 -28 -25 -29 -31 -7 -3
12 -5 22 -5 22 0 0 -4 12 -9 26 -12 31 -4 48 31 57 37 10 29 27 -11 26 -29 -1
-34 2 -39 27 -7 36 -30 58 -38 36z"/>
<path d="M2816 2455 c-3 -8 -1 -16 4 -16 6 -1 15 -3 20 -4 6 -1 14 -3 19 -4 6
0 10 -9 10 -18 -1 -31 20 -163 27 -174 2 -4 -6 -9 -17 -12 -12 -3 -19 -12 -17
-19 6 -17 74 -13 104 7 14 9 25 11 29 5 3 -5 13 -6 21 -3 14 5 25 7 72 12 6 0
12 11 12 22 0 16 -5 20 -19 16 -22 -5 -29 6 -37 62 -14 93 -61 118 -114 61
-17 -18 -31 -27 -31 -21 -1 6 -3 20 -4 31 -1 11 -3 31 -4 45 -1 22 -6 25 -35
25 -21 0 -36 -6 -40 -15z m189 -107 c12 -72 12 -83 -4 -95 -9 -7 -28 -13 -43
-13 -20 0 -28 7 -37 31 -15 43 18 109 54 109 19 0 25 -6 30 -32z"/>
<path d="M3146 2454 c-24 -14 -27 -20 -22 -47 4 -18 11 -33 16 -35 5 -2 3 -14
-6 -27 -18 -27 -11 -66 15 -82 19 -12 97 0 115 17 5 5 18 5 31 0 29 -11 47 1
50 34 3 23 0 26 -18 24 -18 -2 -23 4 -31 37 -19 89 -24 95 -75 95 -25 -1 -59
-8 -75 -16z m97 -23 c19 -3 3 -22 -30 -37 -21 -10 -42 -20 -48 -23 -5 -2 -4 3
4 12 10 13 11 20 2 31 -18 21 7 27 72 17z m10 -85 c11 -28 -62 -66 -82 -42
-14 16 1 35 35 46 41 12 41 12 47 -4z"/>
<path d="M3705 2436 c-29 -44 16 -98 61 -73 27 15 34 28 29 56 -8 46 -64 57
-90 17z"/>
<path d="M5856 2395 c-45 -86 -33 -135 34 -135 14 0 36 -7 49 -16 21 -15 22
-18 7 -26 -20 -11 -12 -28 14 -28 36 0 41 56 5 70 -20 8 -24 15 -22 42 1 19 8
33 15 32 45 -4 45 -4 39 -34 -5 -22 -3 -30 8 -30 8 0 15 4 15 9 0 5 6 16 13
23 23 26 37 57 31 72 -7 18 -34 10 -34 -10 0 -16 -36 -19 -45 -4 -3 6 -13 10
-21 10 -9 0 -23 8 -32 17 -16 16 -18 21 -21 51 -2 28 -28 8 -55 -43z m56 -33
c16 -6 16 -10 -4 -40 -18 -29 -23 -31 -35 -19 -11 11 -12 19 -2 40 13 29 15
29 41 19z"/>
<path d="M2654 2358 c-28 -13 -52 -65 -48 -107 8 -94 137 -121 183 -39 12 20
13 30 5 38 -9 9 -20 3 -42 -21 -28 -30 -34 -32 -59 -23 -56 19 -68 103 -18
126 32 15 55 4 55 -27 0 -27 18 -33 38 -13 46 46 -46 99 -114 66z"/>
<path d="M2378 2293 c-15 -16 -27 -39 -29 -53 -5 -58 43 -119 94 -120 33 0 93
53 81 72 -5 8 -14 3 -28 -15 -26 -33 -67 -36 -96 -7 -23 23 -26 37 -7 37 6 0
38 6 70 12 65 14 73 31 32 75 -33 36 -82 36 -117 -1z m82 -31 c0 -14 -47 -35
-59 -27 -5 2 -6 16 -4 29 8 40 62 39 63 -2z"/>
<path d="M2170 2276 c-6 -6 -32 -11 -58 -11 -35 0 -47 -4 -47 -15 0 -9 9 -15
23 -14 25 1 27 -6 37 -101 3 -32 8 -69 11 -81 4 -17 0 -23 -20 -28 -14 -3 -26
-11 -26 -17 0 -19 44 -27 83 -13 20 7 41 13 45 13 4 0 8 7 10 15 2 11 -4 16
-21 16 -14 0 -27 6 -30 14 -8 20 4 28 20 15 9 -9 13 -8 13 0 0 6 3 10 8 10 22
-4 42 2 37 11 -3 6 -2 10 3 10 4 0 15 15 24 33 17 35 8 82 -24 126 -18 26 -69
36 -88 17z m67 -48 c0 -7 3 -31 6 -54 5 -33 2 -42 -16 -53 -19 -12 -23 -11
-44 13 -25 30 -28 43 -13 80 7 20 17 26 38 26 16 0 29 -6 29 -12z"/>
<path d="M5656 2192 c-10 -10 -6 -41 6 -48 10 -6 38 20 38 37 0 9 -37 18 -44
11z"/>
<path d="M5693 2115 c-28 -42 -28 -45 -5 -45 10 0 24 11 31 24 l13 24 45 -30
c49 -33 62 -53 44 -71 -15 -15 -14 -57 2 -57 21 1 111 136 103 156 -9 22 -35
16 -48 -11 -6 -14 -16 -25 -21 -25 -5 0 -34 16 -63 35 -29 19 -58 35 -66 35
-7 0 -23 -16 -35 -35z"/>
<path d="M5524 1983 c-4 -10 -16 -28 -27 -40 -25 -28 -14 -44 23 -36 35 7 37
1 11 -35 -30 -42 -18 -76 41 -114 63 -41 75 -42 109 -9 31 31 43 29 53 -11 8
-35 26 -37 26 -3 0 22 9 29 32 27 3 -1 9 5 12 13 3 9 -1 16 -9 16 -38 3 -62
18 -46 29 20 12 22 59 5 90 -19 31 -80 70 -111 70 -11 0 -28 -9 -38 -20 -22
-25 -38 -21 -45 10 -7 30 -28 37 -36 13z m189 -76 c24 -27 26 -32 14 -50 -21
-33 -45 -28 -82 16 -37 43 -42 56 -24 74 16 16 56 -2 92 -40z m-105 -46 c19
-1 62 -51 62 -73 0 -10 -7 -21 -15 -24 -19 -8 -75 14 -75 29 0 6 -7 18 -16 28
-20 22 -12 49 13 44 10 -2 24 -4 31 -4z"/>
<path d="M5410 1732 c-59 -32 -89 -122 -40 -122 20 0 36 33 25 50 -3 5 -2 17
3 26 6 11 11 13 16 5 4 -6 12 -11 17 -11 6 0 7 5 4 10 -3 6 -2 10 3 10 5 0 10
-11 10 -25 0 -14 -4 -25 -9 -25 -16 0 -35 -55 -30 -85 5 -25 11 -31 40 -33 35
-4 81 28 81 54 0 8 14 20 30 29 21 11 30 23 30 40 0 30 -15 40 -32 21 -11 -12
-19 -7 -55 30 -24 24 -46 44 -50 44 -5 0 -24 -8 -43 -18z m104 -88 c3 -9 1
-24 -4 -35 -6 -11 -8 -24 -5 -29 7 -12 -39 -24 -60 -16 -19 7 -19 30 -2 48 8
7 19 23 26 35 12 24 36 22 45 -3z"/>
<path d="M1652 1651 c-9 -5 -11 -17 -6 -35 5 -21 1 -32 -23 -54 -32 -31 -63
-47 -63 -32 0 15 -43 12 -67 -5 -13 -9 -20 -22 -16 -31 5 -13 8 -13 27 -1 20
13 25 11 70 -33 42 -41 47 -49 37 -68 -6 -11 -11 -23 -11 -26 0 -14 32 -4 50
14 17 17 18 24 9 41 -9 18 -6 26 18 52 44 49 56 56 75 46 49 -26 35 12 -29 80
-40 42 -62 58 -71 52z m38 -87 c0 -31 -68 -100 -83 -85 -7 7 1 23 29 50 36 37
54 49 54 35z"/>
<path d="M5212 1551 c-12 -10 -22 -23 -22 -29 0 -6 -12 -17 -26 -24 -32 -15
-35 -32 -8 -36 21 -4 84 -61 117 -106 12 -17 20 -42 19 -58 -1 -15 2 -28 7
-28 14 0 75 61 77 77 3 16 -1 16 -26 3 -13 -7 -21 -6 -29 4 -9 11 -5 20 20 44
28 27 31 33 25 67 -10 49 -65 105 -105 105 -15 0 -38 -8 -49 -19z m78 -26 c44
-23 55 -53 36 -101 -10 -26 -57 -16 -88 18 -33 37 -33 41 -12 73 19 29 25 30
64 10z"/>
<path d="M5265 1470 c3 -5 8 -10 11 -10 2 0 4 5 4 10 0 6 -5 10 -11 10 -5 0
-7 -4 -4 -10z"/>
<path d="M1834 1463 c4 -9 3 -19 -2 -22 -10 -8 -52 -67 -52 -75 0 -3 8 -6 17
-6 14 0 14 -3 5 -12 -10 -10 -15 -10 -23 2 -7 10 -12 11 -15 4 -3 -7 -14 -10
-25 -7 -15 4 -18 2 -13 -11 7 -18 12 -19 66 -20 21 -1 38 2 38 7 0 4 11 5 25
3 17 -3 26 1 30 15 4 10 11 19 16 19 11 0 -21 -49 -44 -69 -8 -6 -19 -10 -25
-9 -13 4 -12 -12 2 -34 6 -10 19 -18 30 -18 15 0 16 3 6 15 -13 16 -14 15 48
83 12 14 22 28 22 33 0 4 9 5 20 2 29 -8 24 10 -7 29 -29 17 -49 11 -83 -22
-19 -19 -50 -22 -50 -4 0 7 5 16 10 19 6 4 8 11 5 16 -5 8 16 14 38 10 20 -3
17 31 -4 49 -30 24 -43 25 -35 3z"/>
<path d="M5050 1412 c-30 -14 -118 -83 -124 -97 -4 -11 2 -15 22 -15 37 0 76
-51 74 -96 -1 -18 3 -36 9 -39 10 -7 45 12 73 40 20 20 12 39 -11 26 -13 -7
-22 0 -41 27 -40 59 -45 80 -21 93 15 8 24 8 32 0 29 -29 54 3 35 44 -11 25
-21 29 -48 17z"/>
<path d="M2048 1296 c-22 -30 -14 -37 33 -30 31 5 39 3 48 -14 19 -36 14 -45
-23 -39 -46 7 -51 -1 -19 -35 31 -33 21 -55 -21 -44 -34 8 -61 36 -45 46 13 9
6 40 -9 40 -5 0 -15 -7 -23 -16 -11 -13 -10 -21 6 -50 23 -43 46 -56 88 -52
23 2 35 11 47 33 8 16 23 38 33 49 18 21 22 53 9 72 -10 16 -83 64 -96 64 -6
0 -19 -11 -28 -24z"/>
<path d="M4737 1303 c-10 -9 -9 -41 2 -47 15 -10 42 19 35 37 -6 17 -25 23
-37 10z"/>
<path d="M4742 1224 c-18 -8 -32 -20 -29 -27 5 -14 48 -11 58 5 6 10 59 -86
59 -108 0 -5 -14 -17 -31 -27 -25 -14 -29 -20 -19 -31 10 -12 16 -12 48 1 20
8 48 23 62 33 14 9 33 20 43 23 18 7 23 32 7 42 -5 3 -23 -1 -39 -10 -34 -17
-31 -19 -72 60 -29 56 -39 60 -87 39z"/>
<path d="M2266 1165 c-3 -9 -4 -21 0 -26 8 -13 52 -11 57 4 3 9 8 8 20 -3 11
-11 13 -21 6 -38 -8 -21 -10 -22 -33 -7 -30 20 -75 13 -98 -16 -31 -37 9 -87
74 -93 9 0 27 -11 41 -24 14 -13 30 -20 39 -17 21 8 31 45 12 45 -19 0 -17 8
11 55 32 51 31 65 -4 99 -37 35 -114 48 -125 21z m47 -100 c19 -8 38 -11 42
-7 4 4 1 -5 -6 -20 -10 -24 -18 -28 -51 -26 -41 1 -65 25 -54 54 7 18 25 18
69 -1z"/>
<path d="M2567 1143 c-13 -12 -7 -40 12 -57 15 -13 20 -14 24 -4 4 9 6 8 6 -3
1 -21 53 -30 75 -14 19 15 21 44 3 51 -8 3 -26 0 -40 -5 -25 -10 -27 -8 -27
14 0 20 -5 25 -23 25 -13 0 -27 -3 -30 -7z"/>
<path d="M4540 1113 c-71 -34 -73 -37 -45 -42 24 -5 32 -14 41 -46 20 -65 18
-78 -10 -71 -30 7 -42 -17 -19 -39 13 -14 18 -14 37 -2 26 17 32 59 15 100
-10 24 -10 32 -1 35 7 2 9 8 6 14 -4 6 2 8 12 6 12 -2 19 -12 20 -26 1 -13 6
-28 12 -34 11 -11 4 -48 -10 -48 -5 0 -6 -5 -3 -11 9 -13 65 -2 85 17 13 13
12 15 -6 20 -20 5 -52 58 -60 98 -2 10 3 25 11 33 14 14 12 34 -3 32 -4 0 -41
-16 -82 -36z"/>
<path d="M2519 1072 c12 -9 12 -17 1 -55 -6 -25 -9 -50 -6 -55 7 -12 -3 -44
-13 -38 -3 2 -15 0 -26 -4 -19 -7 -19 -8 5 -18 21 -8 28 -6 42 11 10 12 18 19
18 15 0 -4 12 4 26 17 32 29 43 31 59 8 11 -14 13 -12 19 20 6 31 11 37 32 37
37 0 20 17 -22 22 -29 3 -37 0 -44 -17 -4 -11 -15 -27 -25 -35 -14 -12 -18
-12 -26 1 -13 21 -11 40 6 53 20 15 6 33 -30 41 -21 5 -26 4 -16 -3z"/>
<path d="M4293 1020 c-13 -5 -23 -7 -23 -3 0 3 -10 -6 -21 -21 -38 -49 -22
-138 31 -166 23 -13 91 2 109 23 20 24 23 84 6 116 -12 24 -62 63 -77 60 -2 0
-13 -4 -25 -9z m73 -52 c36 -39 7 -118 -43 -118 -21 0 -62 30 -64 48 0 4 -2
16 -4 27 -13 65 64 96 111 43z"/>
<path d="M2775 980 c-3 -5 0 -12 5 -15 7 -4 8 -19 5 -37 -4 -17 -8 -36 -10
-42 -8 -42 -18 -65 -25 -61 -5 3 -11 1 -14 -4 -3 -5 8 -14 26 -20 32 -11 52
-6 30 8 -9 5 -10 15 -2 38 11 30 12 30 48 20 47 -14 44 -10 36 -41 -3 -14 -12
-26 -20 -26 -26 0 -3 -28 27 -32 26 -4 28 -2 23 16 -10 30 -9 36 5 88 8 30 19
48 32 51 31 8 22 24 -17 32 -44 8 -49 3 -32 -25 11 -18 10 -23 -7 -36 -11 -8
-21 -11 -23 -6 -1 5 -14 7 -27 4 -22 -4 -25 -1 -25 23 0 18 6 28 20 32 11 3
20 9 20 12 0 12 -69 30 -75 21z"/>
<path d="M4027 956 c-37 -7 -70 -10 -72 -7 -3 2 -5 -3 -5 -11 0 -9 8 -18 18
-20 10 -3 19 -11 19 -19 1 -8 4 -37 7 -65 5 -42 3 -53 -10 -58 -30 -12 -2 -26
46 -23 28 1 50 4 50 7 0 3 18 6 41 6 54 2 72 19 42 42 -19 15 -21 25 -19 90 3
83 9 80 -117 58z m70 -38 c0 -7 3 -36 7 -65 6 -44 4 -53 -11 -61 -34 -18 -59
2 -70 56 -6 30 -6 57 -1 66 11 19 75 22 75 4z"/>
<path d="M2601 909 c-8 -19 -18 -28 -27 -25 -8 3 -14 1 -14 -3 0 -10 24 -21
44 -21 7 0 12 16 13 40 1 22 1 40 0 40 -1 0 -8 -14 -16 -31z"/>
<path d="M3215 895 c-3 -8 -7 -22 -10 -31 -9 -29 7 -36 31 -13 13 12 25 21 25
18 1 -2 3 -13 5 -24 1 -11 5 -36 8 -55 4 -28 1 -38 -17 -52 -19 -15 -20 -19
-7 -28 19 -13 82 -9 87 6 2 6 -6 14 -18 17 -11 3 -18 10 -15 16 4 5 7 32 7 59
1 42 4 49 19 45 11 -3 16 -11 13 -22 -3 -12 2 -17 16 -17 12 0 21 3 22 6 0 3
2 14 4 26 8 40 -15 54 -93 59 -59 5 -73 3 -77 -10z"/>
<path d="M3530 902 c-8 -2 -22 -11 -31 -19 -20 -17 -13 -57 8 -49 8 3 19 6 24
6 5 0 9 6 9 14 0 19 14 28 33 20 21 -8 19 -56 -2 -52 -34 5 -71 -13 -86 -42
-15 -29 -14 -31 9 -54 23 -24 59 -29 97 -12 8 4 28 2 44 -4 22 -9 32 -8 43 4
18 18 9 48 -12 40 -12 -5 -15 5 -14 56 1 40 -4 66 -13 75 -15 15 -84 26 -109
17z m88 -125 c-2 -11 -16 -28 -33 -37 -38 -21 -75 -8 -75 26 0 24 10 28 73 31
33 1 38 -2 35 -20z"/>
</g>
</svg>
