<svg width="17" height="14" fill="none" xmlns="http://www.w3.org/2000/svg"><path d="M15.625 11.5 10.643 7M6.357 7l-4.982 4.5M1 3.25l6.124 4.287c.496.347.744.52 1.013.587.238.06.488.06.726 0 .27-.067.517-.24 1.013-.587L16 3.25M4.6 13h7.8c1.26 0 1.89 0 2.371-.245a2.25 2.25 0 0 0 .984-.984C16 11.291 16 10.661 16 9.4V4.6c0-1.26 0-1.89-.245-2.371a2.25 2.25 0 0 0-.984-.984C14.291 1 13.662 1 12.4 1H4.6c-1.26 0-1.89 0-2.371.245a2.25 2.25 0 0 0-.984.984C1 2.709 1 3.339 1 4.6v4.8c0 1.26 0 1.89.245 2.371.216.424.56.768.984.984C2.709 13 3.339 13 4.6 13Z" stroke="#fff" stroke-width="1.5" stroke-linecap="round" stroke-linejoin="round"/></svg>