<svg width="16" height="16" fill="none" xmlns="http://www.w3.org/2000/svg"><path d="M5.101 5.74a10.988 10.988 0 0 0 2.142 3.017 10.987 10.987 0 0 0 3.018 2.142c.093.045.14.067.2.085.21.061.47.017.648-.111.05-.036.094-.08.18-.165.263-.263.394-.395.526-.48a1.505 1.505 0 0 1 1.641 0c.132.085.264.217.527.48l.146.146c.4.4.6.6.709.815.216.427.216.931 0 1.359-.109.214-.309.414-.708.814l-.12.119c-.398.398-.597.598-.868.75-.3.169-.767.29-1.112.289-.31 0-.523-.061-.948-.182a14.325 14.325 0 0 1-6.233-3.667 14.325 14.325 0 0 1-3.667-6.233C1.062 4.493 1 4.28 1 3.97c-.001-.345.12-.812.29-1.112.151-.271.35-.47.75-.869l.118-.119c.4-.4.6-.6.814-.708a1.505 1.505 0 0 1 1.359 0c.215.109.415.309.815.708l.146.147c.263.263.395.395.48.527a1.505 1.505 0 0 1 0 1.64c-.085.133-.217.264-.48.527-.086.087-.129.13-.165.18a.787.787 0 0 0-.11.648c.017.06.04.107.084.2Z" stroke="#7A4593" stroke-width="1.5" stroke-linecap="round" stroke-linejoin="round"/></svg>