<svg version="1.0" xmlns="http://www.w3.org/2000/svg" width="933.333" height="933.333" viewBox="0 0 700 700"><path d="M338.7 22.6c-.1.1-5.4.4-11.7.8-24.9 1.3-57.3 7.9-83.6 16.9-41 14.1-80 36.9-110.9 64.6-5.9 5.3-23.9 23.4-27.5 27.6-28.1 33-46 62.3-60.5 99.5-8.6 21.7-17 54-19 73-.4 3-.8 6.1-1 6.7-2.3 6.9-2.3 61.2-.1 74.3.3 1.4.7 4.7 1.1 7.5.7 6.2 4.5 27.8 5 28.6.2.3.7 2 1 3.7 2.6 15 14.2 47.1 24.5 67.9 25 50.6 59.4 91.2 104.8 123.6 18 12.8 43.2 26.8 63.2 35 16.8 6.9 43.3 15.3 54.8 17.3 1.5.3 4.3.9 6.2 1.4 3.3.8 18.5 3.3 27.5 4.5 7.5 1 26 1.9 38 1.9 12.2 0 33.5-1.1 35.8-1.9.6-.2 3.7-.6 6.7-1 13.6-1.4 35.8-6.1 50.7-10.6 53.6-16.3 99.2-43.5 137.8-82.4 12.9-13 14.6-14.9 24.6-27.5 29.3-36.8 49.7-77.9 61.4-123.5 2-7.7 3.8-15.8 4.1-18 .3-2.2.7-4.7 1-5.5.8-2.4 3.4-22.8 4.1-33 1.2-16.8.6-49.7-1.1-60-.3-1.4-.7-4.8-1.1-7.5-5.7-47.9-25.8-100.1-54.3-141.5-36.8-53.3-85.4-92.6-146.7-118.5-13-5.5-47.8-15.8-61-18.1-2.2-.4-4.9-.8-6-1-8.4-1.6-20.3-3.2-30.5-4-7.2-.6-36.8-1.3-37.3-.8zm39.2 3.8c4.7.4 9.2.9 10.2 1.1 1 .2 4.4.6 7.6 1 3.2.3 6.5.8 7.3 1 .8.2 3.3.6 5.5 1 8.1 1.2 32.4 7.5 44.3 11.4 48 16.1 90 42 125.7 77.6 16 16 24 25.4 36.9 43.5 29.2 40.8 49.6 93.1 56.2 143.5.3 2.7.8 5.8 1 6.7 2.3 12.5 2.3 64.2-.1 75.3-.3 1.1-.7 3.8-1 6-1.1 9.5-1.7 13.3-2.6 17.5-.6 2.5-1.3 5.6-1.5 7-.3 1.4-1.8 7.6-3.5 13.8-23.6 89.3-85.9 166.3-167.4 207-24.4 12.2-59.2 24.3-79.4 27.7-1.9.3-3.7.7-4 .9-.3.2-2.8.7-5.5 1-2.7.4-5.2.9-5.5 1.1-.4.2-3.8.6-7.6 1-3.9.4-7.2.9-7.6 1.1-1.2.7-22.5 1.7-36.9 1.8-14.5 0-34.5-1-37.3-1.9-.6-.2-4-.6-7.4-1-3.5-.3-6.8-.7-7.5-1-.7-.2-2.9-.6-4.8-.9-11.2-1.6-30.9-6.5-45-11.3-65.9-21.9-122.8-64-162.7-120.3-24.9-35.1-43.9-78.1-52.4-118.5-.7-3.3-1.4-6.5-1.5-7-1.1-5-4.4-30-5.1-37.5-1.3-16.8-.6-54.1 1.2-64.3.4-2.1.9-5 2-13.2.3-2.2.7-4.7 1-5.5.2-.8.7-3.3 1.1-5.5.3-2.2 1.6-8.3 2.9-13.5C59.6 173.2 127.4 92.9 221 52c30-13.1 72.6-23.7 103.5-25.6 4.3-.3 8-.6 8.2-.7.5-.6 37.3 0 45.2.7z"/><path d="M345.7 30.6c-.1.1-6.4.4-14 .8-61.1 2.7-126.9 27-175.7 65-51.8 40.2-90.4 95.1-110 156.1-6.1 19.1-11.9 46.4-13.5 64-.3 3.3-.8 7.8-1 10-.6 5.1-.6 40.5-.1 46.5 1.3 14.2 1.8 18 2.6 23 .5 3 1.2 7.1 1.5 9 6.2 39.3 23.8 83.8 47.3 120 5.9 8.9 19.1 26.7 24.5 32.8 18.2 20.6 34.9 35.9 54.9 50.5 44.6 32.5 101.4 54.4 153.8 59.2 3.6.4 7.9.8 9.5 1.1 4.1.5 45.9.6 47.6 0 .8-.3 4.8-.7 8.9-1 27.4-2.2 63.8-11.5 93-23.8C584.3 597.5 658.9 493.5 668.5 374c.6-7.7.7-43.6.1-46.5-.2-1.1-.7-5.4-1-9.5-3.5-39.2-17.1-83.5-36.7-119.6C606.7 154 571.7 115 530.5 86.7c-47-32.2-106.2-52.7-159.9-55.3-14.5-.7-24.6-1-24.9-.8zm28.8 12.9c23.5 1.7 53 7.9 76.5 16 96 33.3 170 113.2 195.9 211.7 3 11.4 5.6 23.5 6.6 30.5.3 2.1.7 4.7 1 5.8.2 1.1.7 5.1 1 9 .4 3.8.8 8.1 1.1 9.5.7 4 .6 40.8-.1 49-3.5 39.6-13.5 75-31.5 111.6-36.4 73.5-98.8 128-177 154.6-42.7 14.5-93.9 19.6-137 13.8-12.9-1.8-14.7-2.1-28.5-5.1C160 623.2 64.9 520.9 46.1 395.7c-2.7-18-3.4-27.4-3.3-46.3.1-33.6 4.8-63.2 14.8-93.9 11.8-36 29.2-68.2 53.2-98.5 10.1-12.7 34.2-36.7 47.2-47 28.4-22.5 62.3-40.9 96.5-52.2 23.1-7.6 53.2-13.3 76.5-14.5 6.9-.3 12.6-.6 12.7-.7.5-.4 22.9.3 30.8.9z"/><path d="M357.1 68.3c-2.7 2.7-.1 4.5 5.7 3.8.9-.2 1.1 1.9.7 9.1-.4 5.1-.7 11.7-.9 14.6-.2 2.8-.5 5.4-.7 5.6-.2.2-1.9.6-3.7.9-4.3.7-4.9 1.4-3 3.3 1.9 1.9 18.4 3.1 20.7 1.6 2-1.4.6-4.2-2.1-4.2-1.3 0-2.9-.4-3.5-.8-1.3-.8-2.1-8.1-1-9.8.3-.6 3.6-1.1 7.3-1.2 7.9-.3 8.4-.6 8.4-3.7 0-1.3.5-2.7 1-3 2.8-1.7-.1-14.5-3.3-14.5-1 0-2.6-.4-3.6-1-2.8-1.4-20.6-2.1-22-.7zm22.9 6.5c3.3 3.2 3.4 5.9.4 8.7-2.2 2.1-3.6 2.5-6.8 2.3-4.6-.3-5.5-2.3-4.8-9.5l.4-4.1 4.5.5c2.5.2 5.3 1.2 6.3 2.1zm-51.3-4.1c-.8 1-1.8 3.8-2.2 6.3-.3 2.5-1.5 7.9-2.6 12.2-1 4.2-1.9 8.6-1.9 9.8 0 1.1-1.4 3.4-3.1 5-4.3 3.9-3.1 5.3 3.8 4.8 6.1-.5 10.1-3.1 6.5-4.2-5.2-1.7-2.6-6.9 3.4-6.9 3.6 0 3.9.2 4.2 3 .2 2.5-.1 3.2-2 3.6-2.1.6-2.2.8-.6 2.3 2.1 2.1 10.9 2.3 14 .2l2.3-1.6-3.7-3.5c-3.9-3.7-6.3-8.4-7.3-14.4-.3-2-1-4-1.6-4.4-.6-.3-1-1.7-.8-3 .3-3.1-2.6-9.5-4.6-10.3-2.2-.8-2-.9-3.8 1.1zM333 85c0 1.5.5 3.1 1 3.6 1.8 1.8 0 4.4-3 4.4-2.7 0-2.8-.2-2-3.4.4-1.9.5-3.7.2-4.1-.3-.3.1-1.6.8-3 1.6-2.9 3-1.7 3 2.5zm65.8-14.3c-2.4.6-2.3 2.5.1 4 2.2 1.4 2.1 5.4-.5 17.3-2.4 11.3-2.9 12.4-5.5 13-6.6 1.6 1.7 5.9 10.6 5.4 2.2-.1 4.7.4 5.5 1.1 2.4 1.9 11.9 3.6 13.9 2.5 2-1 3.4-5.7 2-6.6-.5-.3-.9 0-.9.5 0 1.4-2.7 1.4-3.5.1-.3-.5-.2-3.6.4-6.7.5-3.2 1.2-7.6 1.5-9.8.7-5.5 2.6-10.5 3.9-10.6 2.7-.2 7.3-.1 8.6.2.7.2 1.5-.1 1.7-.6.6-1.7-17.2-7.2-20-6.2-2.2.9-2 3.4.2 4.1 2.3.8 2.8 7.3.9 10-1.1 1.5-2.1 1.7-6 1.1-2.5-.4-5.4-1.3-6.3-1.9-1.5-1.2-1.5-1.7-.2-5.7 1.4-4 1.8-4.4 4.6-4.2 1.7.2 3.4-.2 3.7-.7.3-.6-.1-1-.9-1-.9 0-1.6-.6-1.6-1.4 0-1.4-5.4-3.9-6.3-2.9-.3.2-1.4.1-2.4-.4s-2.6-.8-3.5-.6zm13.4 23.5c4.3 1.3 4.8 2.6 3.2 8.7-.9 3.6-1.7 4.7-3.9 5.4-2.1.7-3 .7-3.3-.2-.2-.6-1.3-1.1-2.5-1.1-4 0-4.6-1.2-4.1-7.4.2-3.2.7-6.2 1-6.7.5-.9 3.3-.6 9.6 1.3zM297.4 74c-4 4-4.7 5.3-4.9 9.7-.2 4.8-1.7 6.5-5 6.1-1.6-.3-2-1-1.9-4.1.1-2-.3-3.7-.9-3.7-.5 0 .2-1.2 1.7-2.6 3-3.1 3.2-4 1.1-4.8-1.5-.5-10.8.9-12.5 1.9-1.5.9.1 3.5 2.1 3.5 1 0 2 .4 2 1 .1.5.2 1.3.3 1.7.5 2.1 1.6 9.3 2.1 13.8.3 2.7.8 6.4 1 8.1.3 2.2-.2 4-1.6 5.8-1.2 1.5-1.8 3-1.5 3.4 1.1 1.1 9.8.1 13.8-1.6 4.8-2.1 5-3.9.4-3.4-4.2.5-6.3-2.1-7.2-9-.6-4.4-.6-4.5 2.6-5.1 4.6-1 8.8 1.7 9.7 6.3.4 1.9.6 3.9.5 4.4-.6 2.2 1.2 4.6 4.3 5.6 2.9 1 3.8.9 5.9-.7 5.1-3.7 3.3-9-3.2-9.5-3-.2-3.7-.7-3.8-2.5-.1-2.7-3-7.3-4.5-7.3-.8 0-.8-.4-.2-1.3.6-.6 1.3-2.4 1.7-3.9.3-1.5 1.6-3.3 2.9-3.9 2.3-1.2 6.2-4.9 5.6-5.3-.2-.1-1.7-1.2-3.3-2.4-3.5-2.7-4.7-2.7-7.2-.2zm9.6 0c0 .5.4 1 .9 1 .6 0 1.3-.5 1.6-1 .3-.6-.1-1-.9-1-.9 0-1.6.4-1.6 1zm-49.5 6.4c-1.6.6-4.5 2-6.3 2.9-2.7 1.5-3.1 2.1-2.2 3.3.7.7 1.6 1.2 2 .9 1.5-.9 3.1 2.4 3.2 6.5.1 7.5-3.3 7.9-7.7.9-1.9-3-2.4-4.4-1.6-5.2 1.9-1.9 1.2-3.7-1.4-3.7-3.1 0-9 2.4-10 4-.9 1.5 1.1 2.9 3.5 2.3 1.8-.5 7.1 4.9 12.5 12.7 3.2 4.7 3.8 10.2 1.2 12.8-1.5 1.5-1.7 1.5-1.7 0 0-.8-.7-2.1-1.5-2.8-1.2-1-2-.9-4 .4-2.9 1.9-3.1 3.6-.7 6.4 3.1 3.7 7.1 3.6 12.9-.1 3.5-2.3 4.9-3.7 4.2-4.4-1.2-1.2-1.2-1-.6-17.3.5-12.1.6-12.5 3.3-15.3 2.8-2.8 2.8-2.9 1-4.3-2.2-1.6-2-1.6-6.1 0z"/><path d="M410.5 81c-.3.5-.1 1 .4 1 .6 0 1.1-.5 1.1-1 0-.6-.2-1-.4-1-.3 0-.8.4-1.1 1zm33.6 1.8c-4.6 2.3-6.4 7.3-4.5 12.1 1.2 3 1.2 3.7-.1 5.7-.8 1.3-1.5 3-1.5 3.7 0 2.6-2.9 4.2-5.1 2.9-1.6-1-2.1-.8-3.4 1.2-2.1 3.2-1 7.5 2.3 8.7 4.1 1.6 5.8.2 9.4-7.4 3.2-6.7 3.7-7.2 6.6-7.2 4 0 7 3.6 4.7 5.5-.8.7-1.5 1.9-1.5 2.6 0 .8-.4 1.4-.9 1.4s-.7.9-.4 2.1c.5 1.9.3 2-3.1 1.4-3.4-.7-3.6-.6-3.6 1.9 0 2.9 1.2 3.7 9.8 6 5.4 1.5 6.5 1.5 8.3.3 2-1.4 1.9-1.5-1.6-3.7-2.9-1.8-3.6-2.8-3.1-4.4 1.9-7.8 3.7-13.8 5.4-18.5 1.9-5.1 2.2-5.5 5.4-5.5 2.6-.1 3.4-.5 3.6-2.4.2-1.2.2-2.2-.1-2.2-.2 0-4.1-1.4-8.7-3-9.5-3.4-13.1-3.7-17.9-1.2zm10.8 3.7c.6.3 1.1 1.3 1.1 2 0 .9.6 1.2 1.5.9 1.9-.8 1.9.7.1 5.1-1.5 3.4-6.1 5.8-7.5 3.9-.3-.5-1.9-1.5-3.4-2.2-2.6-1.1-2.8-1.6-2.4-4.9.3-2 1.3-4.3 2.3-5 1.8-1.3 6.1-1.2 8.3.2zm-26.6-.5c-.2 1.9.8 2.6 2 1.4.7-.7-.2-3.4-1.2-3.4-.4 0-.7.9-.8 2zm-1.3 9.4c0 .8.5 1.8 1 2.1.6.3 1-.3 1-1.4 0-1.2-.4-2.1-1-2.1-.5 0-1 .6-1 1.4zm-213.2.9c-1.8.5-3.5 1.2-3.8 1.6-.3.4-3.1 1.5-6.2 2.6-3.7 1.2-6.1 2.7-6.9 4.2-1.7 3.2-.6 3.9 4 2.1l3.8-1.5 2.7 6.6c1.5 3.6 2.9 7.5 3.1 8.6.1 1.2 1.2 3.9 2.4 6 2.8 5.2 2.7 6-.9 8.5-2.4 1.7-2.8 2.5-2 3.5 1 1.2 2.4 1.2 6.5.1.6-.1 2.6-.9 4.6-1.8 2-.9 4.5-1.9 5.7-2.2 2.7-.9 4.3-3.7 3.2-5.6-.7-1.1-1.4-1.2-3.4-.2-3.3 1.5-4.8.9-6.9-2.7-2.3-3.9-2.1-6 .6-7.1 5.9-2.6 10.2-5.8 9.9-7.6-.2-1.1-.4-3.6-.6-5.7-.2-2.7-1.3-4.8-3.6-7.2-3.4-3.6-5.4-3.9-12.2-2.2zm9.9 6.6c.7.9 1.3 2.6 1.3 3.7 0 2.6-4.6 7.4-7.1 7.4-1.1 0-2.2.1-2.6.1-1.1.2-6.5-10.2-5.8-11 3.1-3.1 11.9-3.2 14.2-.2zm-50.9 13.7c-8.9 5-10.9 6.9-9.2 8.7.3.3 1.5.1 2.5-.6 1.5-.9 2.2-.8 3.9 1 1.1 1.2 2 2.7 2 3.3 0 .5 1.8 4.7 4 9.1 4.6 9.3 4.8 10.7 2 13.7-2.4 2.6-2.6 5.9-.3 9.2 2 2.9 3.3 4 5.1 4 1.7 0 3.2-4.2 2-5.7-1.8-2.2 2.9-6.5 12.5-11.3 2.5-1.2 2.9-1.2 5.5 1.3 3.2 3 6.2 2.2 6.2-1.8 0-1.6.6-2.5 1.5-2.5.8 0 1.5-.4 1.5-.9s-.9-.7-1.9-.4c-1.2.3-2.9-.4-4.2-1.6-1.4-1.3-3.6-2.1-5.6-2.1-1.8 0-3.3-.3-3.3-.8 0-.4-1.8-3-3.9-5.8-2.1-2.9-4.2-6.2-4.6-7.5-.4-1.3-1.6-4.3-2.7-6.7-1.4-3.1-1.6-4.7-.9-5.6 1.1-1.4.5-2.6-1.3-2.6-.6 0-5.5 2.5-10.8 5.6zm10.9 9.4c5.8 10 8.6 16.7 7.9 18.6-.4.9-.9 1.4-1.2 1.1-.4-.3-1.3.1-2.1.9-1.7 1.7-3.3 1-3.3-1.4 0-.9-.9-3.1-2.1-4.7-2.5-3.7-8.9-17.3-8.9-19 0-.8.6-1.5 1.3-1.8 3.2-1.1 4.9.1 8.4 6.3zm152.1-6.5c-.2.1-4 .6-8.4.9-7.9.7-11.2 1.1-16.4 2.1-1.4.3-3.8.8-5.4 1.1-12.1 2.2-30.5 7.7-43.2 12.9-69.5 28.7-121.1 89.8-137.4 162.7-1 4.2-1.5 8-1.2 8.3.3.3 1.6.5 2.8.5 2 0 2.5-.9 4-7.8 1.6-7.4 8.4-29.6 10.3-33.7.6-1.1 3.2-6.7 5.9-12.5 5.8-12.5 13.9-25.9 23.6-39 8.9-12.1 32.3-35.5 44.6-44.6 33.7-25 70.5-39.6 111.7-44.1 13-1.5 44.5-.8 54.9 1.1 1.1.2 3.9.7 6.4 1.2 2.5.4 4.7.8 5 .9.3 0 2.3.4 4.5.9 23.9 4.6 55.1 17.9 77.5 32.9 7 4.7 14 9.8 16.6 12.2.6.5 3.4 2.9 6.1 5.2 13.6 11.5 28.3 28 38.5 43.3 3.9 5.8 7.6 10.4 8.2 10.2.6-.2 1.7-.9 2.4-1.6 2.7-2.6-16.1-28-34.3-46.1-18.9-18.9-37.6-32.1-62-44-11.5-5.7-39.5-16.2-39.5-14.9 0 .2-.8.1-1.7-.5-2.1-1-19.6-4.7-26.8-5.6-2.7-.3-6.6-.8-8.5-1.2-3.6-.5-37.7-1.3-38.2-.8z"/><path d="M379.5 194.6c-3.8 3.8.5 8.1 5.5 5.4 1.7-.9 1.9-1.4.9-3.3-2.1-3.9-3.9-4.5-6.4-2.1zm50 3c-3.3.7-7.7 1.6-9.9 1.9-7.7 1.3-10.9 8.5-6.3 14.2 1.4 1.7 2.4 4.4 2.6 6.7.1 2.2.4 4.3.7 4.8.3.4-.2.8-1 .8-.9 0-1.6-.5-1.6-1 0-.7-.6-.7-2 0-3.8 2-1.4 6.2 3.6 6.2 3.4 0 7.3-3.7 5.6-5.4-1.6-1.6-1.5-6.3.1-7.7.8-.6 1.7-.8 2-.5.3.4 1.3-.1 2.2-1 2.5-2.4 4.1-1.9 5.2 1.7 1.2 4 .7 5.7-1.7 5.7-2.1 0-4.4 2.5-3.6 3.8.3.6 2.9.8 5.8.7 2.9-.2 6.8-.4 8.6-.4 2.4-.1 3.5-.7 4.1-2.4 1.1-2.9-2.2-5.1-5-3.4-1 .6-2.1.8-2.5.5-1-1-2.6-9.7-2.8-14.7-.1-3.6.3-4.5 2-5.1 1.8-.7 3.4-2.9 3.4-4.5s-4.3-2-9.5-.9zm-1.2 9.6c.2 1.8.4 3.4.2 3.5-.6.8-9.3 1-10.5.3-2-1.2-.4-5.8 2.3-6.3 6.3-1.2 7.5-.8 8 2.5zm-52.7-1.2c-4.4.6-5.4 2-3.1 4.4 1.2 1.1 2.1 1.3 3.4.6 1.2-.6 2.2-.5 2.9.2.9.9 1.2.9 1.2 0 0-.7.6-1.2 1.4-1.2 1.3 0 2.2 4.4 3 15.1l.4 4.5-5.6 1.5c-5.9 1.5-7.2 2.8-4.9 5.1 1.6 1.5 6.9 1.2 21-1.5 7.2-1.3 9.2-2.9 7.6-5.9-1.1-2-4.4-2.3-8.3-.8-3.2 1.2-4.4-.7-5.6-8.9-1-6.2-1.6-9.3-2.5-12.1-.6-2-2.5-2.2-10.9-1zm-24.2 5.9c-.3.3-2.4.7-4.7.8-2.3.1-5.5.4-7.2.6-1.6.3-4 .5-5.3.6-1.4.1-2.6 1-3.1 2.3-1 2.6.4 4.9 2.4 4.2.8-.3 2.3.3 3.3 1.3 3.1 3 3.9 18 .9 17-1.8-.6-5.8 5-5.9 8-.1 5.9.1 6.5 2.5 6.1 1.7-.2 2.2-1 2.2-3.2.1-3.2.3-3.4 10.5-5.6 8.3-1.8 11.2-1.2 12.2 2.7 1.5 5.7 4.7 3.7 5.3-3.2.3-3.9-1.6-6.5-4.9-6.9-3.3-.3-3.8-.8-4.2-4.6-.3-2.8-.5-3.8-2-10.1-.5-2.2 0-3 2.8-4.9 1.8-1.3 3.5-2.5 3.8-2.8.8-.6-3.3-2.6-5.7-2.8-1.3 0-2.5.2-2.9.5zm-4 11.3c.7 1.3 1.7 5.1 2 8.4.6 5.1.4 6.3-.9 6.8-2.9 1.1-3.5.7-3.5-2.7 0-1.7-.4-4.6-.9-6.4-.6-1.9-.5-3.5.1-4.1.6-.6.6-1.2-.1-1.6-1.6-1-1.3-2.6.4-2.6.8 0 2.1 1 2.9 2.2zm-32.9-5c-2.2.5-5.6 1.7-7.5 2.6-1.9.8-3.9 1.4-4.5 1.2-3-.9-12.1.4-14.1 2.1-2.2 1.8-1.1 3.3 2.7 3.9 2 .3 3.8 1.3 4.4 2.5.5 1.1 2.2 3.3 3.7 4.8 3.7 4 8.1 13.1 7.4 15.3-.4 1.1-1.3 2.8-2.1 3.8-1.4 1.9-1.5 1.9-3.9-.7-3-3.3-5-3.4-7-.6-1.9 2.8-1 7.8 1.8 10.1 2.6 2.2 7.5 2.3 10.4.2 1.2-.8 2.2-1.2 2.2-.7 0 .4.7-.1 1.5-1.1.8-1.1 2.5-2 3.7-2.1 1.2-.1 2.3-.7 2.4-1.4.2-.7 0-.7-.3-.1-.7 1.4-3.3-.7-3.3-2.7 0-1 .6-1.2 2.2-.8 1.7.6 2 .4 1.5-1-.4-.9-.7-1.9-.7-2.1 0-.3-.4-.3-.9.1-.5.3-1.2.1-1.6-.5-.3-.5.1-1 1-1 1.2 0 1.4-.6.8-2.8-.9-3.5-.6-6.6.5-7 .6-.2.8-2.5.5-5.2-.2-3.2.1-5.9 1.1-7.7 1.5-2.9 5-6.3 6.5-6.3.5 0 1.4-.7 2.1-1.5 1-1.2.9-1.5-.6-1.5-1.1 0-2.8-.2-3.9-.4s-3.8.1-6 .6zm-5.5 7.7c.7.1.2 11.2-.6 12-.9.9-5.3-5-4.8-6.4.3-.7-.2-1.5-1-1.8-.9-.4-1.6-1.3-1.6-2.1 0-.9.6-1.3 1.4-1 .8.3 1.7.1 2-.4.3-.6 1.4-.9 2.4-.7.9.2 1.9.4 2.2.4zm-49.9 2.2c-4.6.9-8.8 2.2-9.4 2.8-1.4 1.4-.9 9.3.6 10.3 1.5.9 3.5-.8 3.9-3.5.2-1.4 1.1-2.3 2.6-2.5 1.8-.3 2.2.1 2.2 2.6 0 1.6.7 3.5 1.5 4.2 2.3 1.9 3.1 9.7 1.1 11.9-3 3.3-2.1 5.1 2.7 5.1 5.8 0 9.8-1.9 9.5-4.5-.2-1.3-1-1.9-2.3-1.8-2.4.2-3.7-1.9-4-6.6-.3-4.7-1.3-9.9-2.1-11.2-.4-.7.4-.9 2.2-.7 2.3.2 2.9.8 2.9 2.7 0 1.4.6 2.6 1.3 2.9.6.2 1.2-.1 1.2-.7s.8-1.1 1.8-1.1c2.8 0 3-.6 1.7-5.6-1.8-7.1-3-7.4-17.4-4.3zm-41.1 8c-5.5 3.4-7.5 6.6-7.6 12.9-.1 4.1.4 6.2 1.9 8.5 3.1 4.4 5.3 6.6 6.8 6.9.8.2 3 .6 4.9 1 4.3.9 13.2-2.3 16.1-5.7 2.4-2.9 2.4-6.4-.1-7.7-1.6-.9-2.3-.6-3.7 1.1-3.3 4-5.7 5.9-7.3 5.9-.9 0-2.1.5-2.7 1.1-.7.7-2.1.6-4.7-.5-3.5-1.5-3.6-1.7-3-5.4.4-2.5.2-4.2-.5-4.6-1.8-1.1-1.3-5.1.9-7.1 1.1-1 2-1.5 2-1.2 0 .3 1.4.2 3.1-.3 2.4-.7 3.1-.6 3.7.8 2.2 5.9 9 5.7 7.8-.1-.9-4.6-3.4-6.5-9.1-7.2-4-.4-5.7-.1-8.5 1.6zm366.9 19.3c-.2.2-2.4.7-4.9 1-12.1 1.6-36.1 6.5-37.5 7.6-2.7 2.2-1.7 4.8 2.4 7 2.2 1.1 4.2 2.4 4.5 2.9.8 1.3 5.2 24.6 7.1 37.6.4 2.2.8 4.7 1 5.5.2.8.7 3.1 1 5 .3 1.9.8 4.2 1 5 .2.8.7 3.5 1 6 .4 2.5 1 6.3 1.5 8.5 1.5 6.3 1.2 7.9-2 11.5-1.6 1.8-3 4.2-3 5.2 0 1.9 4 4.1 6.2 3.3.7-.2 2.7-.6 4.3-.8 2.7-.4 11.3-2 17.2-3.1 5.4-1.1 11.9-2 12.6-1.8 1 .3.7-2.5-2.3-19.3-1.1-6.6-3-17.2-4.1-23.5-1.1-6.3-2.9-16-3.9-21.5-1.6-8.3-3.1-18.4-3.2-20.5-.1-2.5.7-4.1 3.6-7.2 2.4-2.6 3.3-4.3 2.9-5.7-.3-1.2-.9-2.1-1.3-2.1-.5 0-1.5-.2-2.2-.5-.8-.3-1.6-.4-1.9-.1zm-57.4 10.1c-.5.2-4.3.9-8.3 1.5l-7.3 1.2.6 4.7c.3 2.5 1 4.7 1.5 4.9 3.1 1.1 6.7 5.5 10.1 12.6 2.2 4.4 4.3 8.4 4.8 8.9 1.6 1.6 5 1.5 6.6-.3 1.6-1.8 1.6-2.6-.5-14.7-1.2-7-2.3-13.5-2.5-14.3-.2-.8-.4-2.3-.4-3.3-.1-1.6-2-2.1-4.6-1.2zm-24 4.2c-4.1.8-17.1 3.2-20.9 3.8-2.1.3-4.9.8-6.1 1.1-2.4.6-2.8-2.7 3 29.9 1.5 8.2 2.9 16 3.1 17.3.2 1.2.8 4.8 1.4 8 1.9 11.6 2.9 17.2 3.7 20.7.2 1.1.6 4.2.9 7 .5 4.7.3 5.2-3 8.8-4.1 4.2-4.3 4.9-2 7.2 1.8 1.7 1.2 1.8 18.9-1.4 6.1-1.1 12.8-2.3 15-2.6 7.3-1.2 12.9-2.6 14.2-3.7 2.7-2.2 1.4-4.8-3.1-6.8-3.8-1.6-5.8-3.3-6.2-5 0-.3-.4-2.8-.9-5.5-.4-2.8-.9-5.9-1.2-7-.2-1.1-1.2-7-2.3-13-1-6.1-2.6-15.1-3.5-20-.9-5-1.8-10.4-2.1-12-.2-1.7-.7-4.1-.9-5.5-1.2-6-1.6-7.9-2.6-13.9-.5-3.6-1.2-6.8-1.5-7.3-.5-.8-.6-.8-3.9-.1zm-45.5 8c-4.7.8-8.6 1.6-8.7 1.7-.4.3 3.3 21.4 4.8 27.9 1.2 5.2 3.2 6.9 6.6 5.6 2.6-.9 3-2.3 3.9-11.9.7-8.2 1.7-11.6 4.1-14.2 1.3-1.4 1.4-5.3.4-10.6-.1-.4-2.1-.1-11.1 1.5zm-53.5 9.4c-5.5 1-11.4 2.1-13.1 2.4-2.9.5-3.2 1-3.8 4.9-.7 4.4-.4 5.3 5.7 18.6 9.6 21.1 16.7 38.4 16 39.1-.4.4-3.7 1.2-7.2 1.8-3.5.6-6.5 1.2-6.6 1.3-.2.2-.5 2.6-.9 5.4l-.6 5.1 7.8-1.3c4.2-.7 8.9-1.5 10.3-1.8 2-.4 2.8.1 4.2 2.7 3.8 7.4 4 8.7 1.2 12.8-4.8 6.9 0 9.7 12 7 2.2-.5 5.8-1.2 8-1.5 11.7-1.8 21.3-3.9 23.3-5.2 3.5-2.2 2.7-4.9-2.1-7.8-4.3-2.5-4.5-2.8-18.5-34.3-7.7-17.5-16-36.2-18.3-41.6-2.9-6.6-4.7-9.7-5.8-9.6-.9.1-6.1 1-11.6 2z"/><path d="M596 292.8c-2.5.5-3.5 1.2-3.4 2.4.3 6.4.4 6.8 2.5 6.8 4.7 0 8.2 4.2 9.4 11.1.3 1.9 1 5.9 1.6 8.9 2.8 15.1 2.4 20.1-2 22.8-1.9 1.1-2.7 2.3-2.4 3.7.2 1.1.4 2.8.5 3.8.2 1.5.9 1.7 4.6 1.2 6.4-.9 17-5.1 21.8-8.8 8.3-6.2 11.8-16.8 9.4-28.4-2.3-11-6.4-16.9-14.5-21.1-4.1-2.1-6.6-2.6-14.5-2.8-5.2-.1-11.1 0-13 .4zm-267.5 7.8c-7.1 1.3-15.9 2.8-19.4 3.4-3.6.6-6.8 1.3-7.3 1.6-1.6 1-.8 3.7 2.4 7.6 3.1 4 4.2 8.1 8.3 31.8.2 1.4 1.3 7.9 2.5 14.5 1.1 6.6 2.7 15.6 3.5 20 2 11.2 1.9 12-2 16.4-1.9 2.1-3.5 4.6-3.5 5.5 0 1.9 3.5 3.5 6.5 3 1.1-.2 6.1-1 11-1.9 5-.9 11.5-2 14.5-2.5 12.7-2.2 16-3.2 17-5.1 1.1-2-.6-4.2-6-7.9-2-1.4-3.5-6.2-5.4-18-.3-1.9-.8-4.6-1-6-3.5-18.8-8.6-49-8.6-51 0-1.5 1.1-3.6 2.4-4.9 3.4-3.2 3.9-5.8 1.3-7.6-1.2-.8-2.4-1.5-2.7-1.4-.3 0-6.3 1.2-13.5 2.5z"/><path d="M280 309.2c-1.9.4-5.1 1-7 1.3-1.9.3-4.8.8-6.5 1.1-1.6.3-3.7.6-4.5.8-10.1 1.7-11.7 5.2-4.4 9.7 4 2.5 5 4.1 5.8 9.5.4 2.2.9 5.1 1.1 6.4.3 1.4.8 4.1 1.1 6 3.1 19.9 14 26.6 38.7 23.7 6.6-.8 7.8-1.2 7.2-3-.2-.7-.6-2.4-.9-4-.5-2-1.2-2.7-3-2.7-3.3 0-7.1-4.8-8.5-10.7-.6-2.6-1.8-10.2-2.6-16.7-1.7-12.7-4-19.8-7.2-21.5-2.2-1.1-4-1.1-9.3.1zm106 1.3c-.1 1.6-.3 4.1-.5 5.5-.1 1.4-.6 6.8-.9 12-.4 5.2-.9 10.8-1.1 12.5-.2 1.6-.7 6.4-1 10.5-2.1 28.2-2.9 30.9-10 35.6-5.8 3.8-1.1 9 6.5 7.3 1.9-.4 5.7-1.1 8.5-1.4 6.8-.9 11.6-2.7 12.9-4.7.8-1.3.5-2.3-1.4-4.3-1.3-1.4-3-2.5-3.7-2.5-.8 0-2.5-1.1-3.9-2.5-2.7-2.7-2.8-4.8-.9-22 .5-4.4 1.1-10.6 2.1-23.5.3-4.7.7-8.7.9-9 .1-.3-1.4-4.1-3.5-8.5-3.3-6.9-3.8-7.6-4-5zm-156.5 7.6c-4.9 1-10.1 1.8-11.5 1.9-4.2.1-5.1 1.3-4.4 5.7.6 4 .7 4.1 4.9 4.1 6.8.2 10.6 2.4 17.5 10.1 6.3 7.1 8.7 8.4 10.9 5.7.9-1.1.9-2.9.1-7.8-.7-3.5-1.4-7.7-1.6-9.3-.3-1.7-.9-5.1-1.5-7.8-1.3-5.5-.9-5.4-14.4-2.6zm-24.5 4.3c-.3.2-2.7.7-5.4 1-6 .8-19.5 3.3-25.8 4.7-3.3.7-4.9 1.7-5.4 3.1-.6 2.1 2 5.8 4.2 5.8 2.6 0 5.2 4.2 5.9 9.3.4 2.9.8 5.9 1 6.7 1.3 6.1 9.1 50.7 10 57.2.7 4.4.5 5.1-2.4 8.3-3.5 4-3.8 5.7-1.5 7.6 1.5 1.2 9 .6 20.9-1.6 10.1-1.9 18.8-3.5 19.1-3.5.2 0 .1-.6-.1-1.3-.2-.6-1.6-7.7-2.9-15.7-1.4-8-4.1-23.5-6.1-34.5s-3.8-21.4-4.1-23c-3.2-19.6-4.2-24-5.5-24.3-.8-.1-1.7-.1-1.9.2zm-55.5 9.7c-2.2.4-5.3 1-7 1.3-4.6.9-7.2 1.4-17.5 3.1-5.2 1-10.2 1.8-11 2-.8.2-2.6.4-3.8.4-2.2.1-2.3.4-1.7 4.3.4 2.4.9 4.4 1 4.6.2.2 2.7-.1 5.6-.6 3-.6 5.5-.9 5.7-.8.1.2.6 2.7 1.2 5.7 1.8 10.1 2 11.4 5.1 28.9 1.6 9.6 3.2 18.8 3.5 20.5.5 2.9 3.1 17.1 3.9 20.8.2.9-.6 4-1.8 6.7-1.9 4.6-2 5.2-.5 6.6 1.6 1.6 1.6 1.6 22.3-2.1 1.7-.3 7-1.3 11.8-2.1 7.5-1.4 9-2 9.9-4 1.2-2.5-.3-5.4-2.7-5.4-.7 0-2.3-.8-3.5-1.8-2-1.6-3.1-5.3-5.5-19.2-.2-1.4-1.1-6.6-1.9-11.5-.9-5-1.8-10-2-11.1-.2-1.2-.7-3.7-1-5.5-.3-1.9-1.4-8.4-2.6-14.4-2.5-14-2.5-14.7.5-18.4 3.1-3.6 3.8-6.6 2.1-8-1.4-1.2-3.5-1.1-10.1 0zm-47.6 8.3c-.2.2-7.8 1.6-16.9 3.1-9.1 1.5-17.5 3.4-18.8 4.2-3.4 2.1-2.5 5.4 2.1 7.6 3.8 1.7 5.1 3.8 6 9.3.6 3.8 6.6 37.3 7.1 39.9.3 1.8 1.2 6.8 2.2 13 .1 1.1.8 4.8 1.4 8.1 1.2 6.8.7 8.9-2.7 12.1-4.2 4-1.9 8.8 3.8 7.8 1.3-.3 10.1-1.8 19.4-3.4 9.4-1.6 17.8-3.3 18.8-3.6 2.5-1 2.1-4.2-.9-6.8-1.4-1.2-3-2.9-3.5-3.8-.7-1.4-4.5-21.1-6.6-34.4-.2-1.7-2.2-12.7-4.3-24.5-3.6-20.2-4.7-26.5-4.9-28.3-.1-.7-1.5-1-2.2-.3zm127.3 7.8c-.7.7-1.2 2.1-1.2 3.2-.1 3.7-2.8 9.7-4.9 11.3-2 1.4-2.2 2.8-1.2 10.4.1.4 1.2 1 2.5 1.3 1.3.3 4.7 3.3 7.5 6.5 5.4 6.2 7.5 6.9 9 2.8.4-1.1-.1-6.8-1.1-12.6s-2.1-12.2-2.4-14.1c-1.4-8.5-4.8-12.2-8.2-8.8zm343.3 35.2c-1.1 8.3-4.3 22.4-7.6 33.1-11.1 35.9-29.2 65.9-55.9 92.5-36.3 36.2-81.4 58-133.2 64.4-14.3 1.7-39.2 1.7-52.8 0-67.8-8.5-125.7-44.9-162.2-101.9-3.5-5.5-7.2-11.7-8.3-13.8-2.1-4-3.1-4.4-5.9-2.4-1.6 1.2-1.3 2 4 10.7 38.7 64.8 102.9 106.1 176.4 113.7 9.4 1 34.1 1 44 .1 6.6-.7 10.2-1.2 23.5-3.4 15.6-2.6 38.9-10.5 57.1-19.4 56.3-27.5 99.1-77.2 118.2-137.2 3.1-9.4 7.6-28.9 8.6-36.4.5-4 .4-4.2-2.4-4.6-2.8-.4-2.9-.3-3.5 4.6zm-323.9 2.8c-.9 1.2-1.6 3-1.6 4 0 3.1-4.1 12.8-6.3 14.9-2.2 2.1-8.3 5.5-10.2 5.8-.8.2-1 8-.2 8.8.4.4 30.1-4.7 30.6-5.3.9-.8-4-25.8-5.4-28.1-1.9-2.9-4.9-2.9-6.9-.1z"/><path d="M501.1 421.4c-5.7 1.4-7.2 3.6-4.9 7.6 1.4 2.4 1.4 3.1.3 4-1.7 1.4-1.6 5 .3 7.2 1.8 2.1 6.1 2.3 10.5.4 1.8-.7 4.7-1.1 6.3-.9 3.4.5 4.9-1.4 3.8-4.9-.4-1.5-.9-1.7-2-.7-1.1.9-1.6.6-2.4-1.6-.5-1.4-1-3.5-1-4.5 0-2.1-2-7-2.9-7.1-.3 0-1.3-.2-2.1-.3-.8-.2-3.5.2-5.9.8zm6.3 3.5c.7 1.1-5.5 5.1-7.5 5-1 0-1.1-.2-.2-.6.8-.3 1.1-1.4.7-2.9-.6-2.2-.3-2.4 2.9-2.4 2 0 3.8.4 4.1.9zm.6 9.1c0 3.5-7.2 5.6-8.4 2.4-.4-1 .4-1.9 2.7-2.9 4.4-1.9 5.7-1.8 5.7.5zm-30.3-7.3c-1.4 1.3-.6 2.4 1.6 2.1 1.9-.3 2.2.2 2.5 3.4.5 5.5-2.1 10.8-5.2 10.8-2.1 0-2.6-.6-3.2-3.8-1.9-10.7-1.8-10.7-4.8-11-4-.5-5.7 1.4-2.4 2.7 2.6 1 3 1.9 4.3 10 .7 4.3 1.2 5 3.9 6.1 1.3.5 2.8.3 4.2-.5 1.2-.8 4.6-1.5 7.5-1.7 4.2-.2 5.5-.7 5.7-2.1.2-.9-.2-1.7-1-1.7-2.8 0-4-1.9-5.4-8.3-1.5-6.3-1.7-6.7-4.3-6.7-1.5 0-3.1.3-3.4.7zm-55.3 2.5c-.9 1.4.6 2.8 3.1 2.8 2.1 0 3.5 1.7 3.5 4.1 0 .6-1.4.7-3.2.4-2.5-.5-3.8-.1-5.5 1.5-1.3 1.1-2.3 2.4-2.4 2.8 0 .4-.3 1.8-.5 3.2-.7 3.6.2 6.4 3.2 10 2.8 3.2 6.5 3.8 9.1 1.4.6-.6 2.3-.9 3.6-.7 2.5.5 6.7-1.1 6.7-2.5 0-.4-1.3-1.2-2.9-1.8-2.2-.9-3-2-3.6-5-.5-2.2-.9-4.1-1-4.4-.1-.3-.5-2.5-.9-5-1.3-7.9-1.4-8.1-5.2-7.8-2 .1-3.8.6-4 1zm4 11c3.6 1.6 4.5 6.8 1.8 10.2l-1.9 2.5-2.5-2.2c-3.5-3.1-4-5.3-2.3-8.8 1.8-3.3 1.6-3.3 4.9-1.7zm-28.4-.1c-5 1.8-7.7 10.8-4.9 16.1 1.4 2.7 7.4 5.1 10.9 4.3 3.8-.8 6.1-3.6 6.7-8.2.6-5.1-1-8.9-4.9-11.3-3.6-2.2-4.2-2.3-7.8-.9zm6.4 4.4c3.8 3.9 2.5 10.9-2.2 11.8-2.9.6-4.7-.9-6.2-4.9-1.3-3.4-.4-6.3 2.3-7.4 3.2-1.3 4.4-1.2 6.1.5zm45.3-2.7c-3.1 3.4-1.6 7.9 3 8.7 4.3.7 7-5.7 3.7-8.9-2.1-2.1-4.7-2-6.7.2zm-108.2.5c-.4.8-.5 2.7-.3 4.2.2 2.1-.2 2.8-1.5 3.1-4 .6-5 1.3-3.8 2.8.9 1 2 1.2 4.2.6 2.4-.7 2.9-.6 3 .8.3 8.3 1.1 11.9 3.2 13.9 2.1 2.1 2.4 2.1 5.4.7 3.1-1.5 4.3-3.8 4.3-8.2 0-3-1.3-2.8-4.3.8-2.4 2.8-2.5 2.9-3.1.7-.3-1.2-.5-2.2-.5-2.2s-.4-1.2-.9-2.6c-1.2-3.1-.4-4.8 3.1-5.7 3.7-1 2.9-2.7-1.1-2.6-2.9.1-3.4-.2-3.9-2.7-.7-3.6-3-5.8-3.8-3.6zm-59.9 12.2c-.3.8-.1 1.6.4 1.6.6.1 1.5.3 2 .4.6.1 1.4.3 1.9.4.6 0 1 .9 1 1.8-.1 3.1 2 16.3 2.7 17.4.2.4-.6.9-1.7 1.2-1.2.3-1.9 1.2-1.7 1.9.6 1.7 7.4 1.3 10.4-.7 1.4-.9 2.5-1.1 2.9-.5.3.5 1.3.6 2.1.3 1.4-.5 2.5-.7 7.2-1.2.6 0 1.2-1.1 1.2-2.2 0-1.6-.5-2-1.9-1.6-2.2.5-2.9-.6-3.7-6.2-1.4-9.3-6.1-11.8-11.4-6.1-1.7 1.8-3.1 2.7-3.1 2.1-.1-.6-.3-2-.4-3.1-.1-1.1-.3-3.1-.4-4.5-.1-2.2-.6-2.5-3.5-2.5-2.1 0-3.6.6-4 1.5zm18.9 10.7c1.2 7.2 1.2 8.3-.4 9.5-.9.7-2.8 1.3-4.3 1.3-2 0-2.8-.7-3.7-3.1-1.5-4.3 1.8-10.9 5.4-10.9 1.9 0 2.5.6 3 3.2zm14.1-10.6c-2.4 1.4-2.7 2-2.2 4.7.4 1.8 1.1 3.3 1.6 3.5.5.2.3 1.4-.6 2.7-1.8 2.7-1.1 6.6 1.5 8.2 1.9 1.2 9.7 0 11.5-1.7.5-.5 1.8-.5 3.1 0 2.9 1.1 4.7-.1 5-3.4.3-2.3 0-2.6-1.8-2.4-1.8.2-2.3-.4-3.1-3.7-1.9-8.9-2.4-9.5-7.5-9.5-2.5.1-5.9.8-7.5 1.6zm9.7 2.3c1.9.3.3 2.2-3 3.7-2.1 1-4.2 2-4.8 2.3-.5.2-.4-.3.4-1.2 1-1.3 1.1-2 .2-3.1-1.8-2.1.7-2.7 7.2-1.7zm1 8.5c1.1 2.8-6.2 6.6-8.2 4.2-1.4-1.6.1-3.5 3.5-4.6 4.1-1.2 4.1-1.2 4.7.4zm45.2-9c-2.9 4.4 1.6 9.8 6.1 7.3 2.7-1.5 3.4-2.8 2.9-5.6-.8-4.6-6.4-5.7-9-1.7zm215.1 4.1c-4.5 8.6-3.3 13.5 3.4 13.5 1.4 0 3.6.7 4.9 1.6 2.1 1.5 2.2 1.8.7 2.6-2 1.1-1.2 2.8 1.4 2.8 3.6 0 4.1-5.6.5-7-2-.8-2.4-1.5-2.2-4.2.1-1.9.8-3.3 1.5-3.2 4.5.4 4.5.4 3.9 3.4-.5 2.2-.3 3 .8 3 .8 0 1.5-.4 1.5-.9s.6-1.6 1.3-2.3c2.3-2.6 3.7-5.7 3.1-7.2-.7-1.8-3.4-1-3.4 1 0 1.6-3.6 1.9-4.5.4-.3-.6-1.3-1-2.1-1-.9 0-2.3-.8-3.2-1.7-1.6-1.6-1.8-2.1-2.1-5.1-.2-2.8-2.8-.8-5.5 4.3zm5.6 3.3c1.6.6 1.6 1-.4 4-1.8 2.9-2.3 3.1-3.5 1.9-1.1-1.1-1.2-1.9-.2-4 1.3-2.9 1.5-2.9 4.1-1.9zm-325.8.4c-2.8 1.3-5.2 6.5-4.8 10.7.8 9.4 13.7 12.1 18.3 3.9 1.2-2 1.3-3 .5-3.8-.9-.9-2-.3-4.2 2.1-2.8 3-3.4 3.2-5.9 2.3-5.6-1.9-6.8-10.3-1.8-12.6 3.2-1.5 5.5-.4 5.5 2.7 0 2.7 1.8 3.3 3.8 1.3 4.6-4.6-4.6-9.9-11.4-6.6zm-27.6 6.5c-1.5 1.6-2.7 3.9-2.9 5.3-.5 5.8 4.3 11.9 9.4 12 3.3 0 9.3-5.3 8.1-7.2-.5-.8-1.4-.3-2.8 1.5-2.6 3.3-6.7 3.6-9.6.7-2.3-2.3-2.6-3.7-.7-3.7.6 0 3.8-.6 7-1.2 6.5-1.4 7.3-3.1 3.2-7.5-3.3-3.6-8.2-3.6-11.7.1zm8.2 3.1c0 1.4-4.7 3.5-5.9 2.7-.5-.2-.6-1.6-.4-2.9.8-4 6.2-3.9 6.3.2zm-29-1.4c-.6.6-3.2 1.1-5.8 1.1-3.5 0-4.7.4-4.7 1.5 0 .9.9 1.5 2.3 1.4 2.5-.1 2.7.6 3.7 10.1.3 3.2.8 6.9 1.1 8.1.4 1.7 0 2.3-2 2.8-1.4.3-2.6 1.1-2.6 1.7 0 1.9 4.4 2.7 8.3 1.3 2-.7 4.1-1.3 4.5-1.3.4 0 .8-.7 1-1.5.2-1.1-.4-1.6-2.1-1.6-1.4 0-2.7-.6-3-1.4-.8-2 .4-2.8 2-1.5.9.9 1.3.8 1.3 0 0-.6.3-1 .8-1 2.2.4 4.2-.2 3.7-1.1-.3-.6-.2-1 .3-1 .4 0 1.5-1.5 2.4-3.3 1.7-3.5.8-8.2-2.4-12.6-1.8-2.6-6.9-3.6-8.8-1.7zm6.7 4.8c0 .7.3 3.1.6 5.4.5 3.3.2 4.2-1.6 5.3-1.9 1.2-2.3 1.1-4.4-1.3-2.5-3-2.8-4.3-1.3-8 .7-2 1.7-2.6 3.8-2.6 1.6 0 2.9.6 2.9 1.2zm341.9 3.6c-1 1-.6 4.1.6 4.8 1 .6 3.8-2 3.8-3.7 0-.9-3.7-1.8-4.4-1.1zm3.7 7.7c-2.8 4.2-2.8 4.5-.5 4.5 1 0 2.4-1.1 3.1-2.4l1.3-2.4 4.5 3c4.9 3.3 6.2 5.3 4.4 7.1-1.5 1.5-1.4 5.7.2 5.7 2.1-.1 11.1-13.6 10.3-15.6-.9-2.2-3.5-1.6-4.8 1.1-.6 1.4-1.6 2.5-2.1 2.5s-3.4-1.6-6.3-3.5-5.8-3.5-6.6-3.5c-.7 0-2.3 1.6-3.5 3.5zm-16.9 13.2c-.4 1-1.6 2.8-2.7 4-2.5 2.8-1.4 4.4 2.3 3.6 3.5-.7 3.7-.1 1.1 3.5-3 4.2-1.8 7.6 4.1 11.4 6.3 4.1 7.5 4.2 10.9.9 3.1-3.1 4.3-2.9 5.3 1.1.8 3.5 2.6 3.7 2.6.3 0-2.2.9-2.9 3.2-2.7.3.1.9-.5 1.2-1.3.3-.9-.1-1.6-.9-1.6-3.8-.3-6.2-1.8-4.6-2.9 2-1.2 2.2-5.9.5-9-1.9-3.1-8-7-11.1-7-1.1 0-2.8.9-3.8 2-2.2 2.5-3.8 2.1-4.5-1-.7-3-2.8-3.7-3.6-1.3zm18.9 7.6c2.4 2.7 2.6 3.2 1.4 5-2.1 3.3-4.5 2.8-8.2-1.6-3.7-4.3-4.2-5.6-2.4-7.4 1.6-1.6 5.6.2 9.2 4zm-10.5 4.6c1.9.1 6.2 5.1 6.2 7.3 0 1-.7 2.1-1.5 2.4-1.9.8-7.5-1.4-7.5-2.9 0-.6-.7-1.8-1.6-2.8-2-2.2-1.2-4.9 1.3-4.4 1 .2 2.4.4 3.1.4zM541 526.8c-5.9 3.2-8.9 12.2-4 12.2 2 0 3.6-3.3 2.5-5-.3-.5-.2-1.7.3-2.6.6-1.1 1.1-1.3 1.6-.5.4.6 1.2 1.1 1.7 1.1.6 0 .7-.5.4-1-.3-.6-.2-1 .3-1s1 1.1 1 2.5-.4 2.5-.9 2.5c-1.6 0-3.5 5.5-3 8.5.5 2.5 1.1 3.1 4 3.3 3.5.4 8.1-2.8 8.1-5.4 0-.8 1.4-2 3-2.9 2.1-1.1 3-2.3 3-4 0-3-1.5-4-3.2-2.1-1.1 1.2-1.9.7-5.5-3-2.4-2.4-4.6-4.4-5-4.4-.5 0-2.4.8-4.3 1.8zm10.4 8.8c.3.9.1 2.4-.4 3.5-.6 1.1-.8 2.4-.5 2.9.7 1.2-3.9 2.4-6 1.6-1.9-.7-1.9-3-.2-4.8.8-.7 1.9-2.3 2.6-3.5 1.2-2.4 3.6-2.2 4.5.3zm-386.2-.7c-.9.5-1.1 1.7-.6 3.5.5 2.1.1 3.2-2.3 5.4-3.2 3.1-6.3 4.7-6.3 3.2s-4.3-1.2-6.7.5c-1.3.9-2 2.2-1.6 3.1.5 1.3.8 1.3 2.7.1 2-1.3 2.5-1.1 7 3.3 4.2 4.1 4.7 4.9 3.7 6.8-.6 1.1-1.1 2.3-1.1 2.6 0 1.4 3.2.4 5-1.4 1.7-1.7 1.8-2.4.9-4.1-.9-1.8-.6-2.6 1.8-5.2 4.4-4.9 5.6-5.6 7.5-4.6 4.9 2.6 3.5-1.2-2.9-8-4-4.2-6.2-5.8-7.1-5.2zm3.8 8.7c0 3.1-6.8 10-8.3 8.5-.7-.7.1-2.3 2.9-5 3.6-3.7 5.4-4.9 5.4-3.5zm352.2 1.3c-1.2 1-2.2 2.3-2.2 2.9 0 .6-1.2 1.7-2.6 2.4-3.2 1.5-3.5 3.2-.8 3.6 2.1.4 8.4 6.1 11.7 10.6 1.2 1.7 2 4.2 1.9 5.8-.1 1.5.2 2.8.7 2.8 1.4 0 7.5-6.1 7.7-7.7.3-1.6-.1-1.6-2.6-.3-1.3.7-2.1.6-2.9-.4-.9-1.1-.5-2 2-4.4 2.8-2.7 3.1-3.3 2.5-6.7-1-4.9-6.5-10.5-10.5-10.5-1.5 0-3.8.8-4.9 1.9zm7.8 2.6c4.4 2.3 5.5 5.3 3.6 10.1-1 2.6-5.7 1.6-8.8-1.8-3.3-3.7-3.3-4.1-1.2-7.3 1.9-2.9 2.5-3 6.4-1z"/><path d="M526.5 553c.3.5.8 1 1.1 1 .2 0 .4-.5.4-1 0-.6-.5-1-1.1-1-.5 0-.7.4-.4 1zm-343.1.7c.4.9.3 1.9-.2 2.2-1 .8-5.2 6.7-5.2 7.5 0 .3.8.6 1.7.6 1.4 0 1.4.3.5 1.2-1 1-1.5 1-2.3-.2-.7-1-1.2-1.1-1.5-.4-.3.7-1.4 1-2.5.7-1.5-.4-1.8-.2-1.3 1.1.7 1.8 1.2 1.9 6.6 2 2.1.1 3.8-.2 3.8-.7 0-.4 1.1-.5 2.5-.3 1.7.3 2.6-.1 3-1.5.4-1 1.1-1.9 1.6-1.9 1.1 0-2.1 4.9-4.4 6.9-.8.6-1.9 1-2.5.9-1.3-.4-1.2 1.2.2 3.4.6 1 1.9 1.8 3 1.8 1.5 0 1.6-.3.6-1.5-1.3-1.6-1.4-1.5 4.8-8.3 1.2-1.4 2.2-2.8 2.2-3.3 0-.4.9-.5 2-.2 2.9.8 2.4-1-.7-2.9-2.9-1.7-4.9-1.1-8.3 2.2-1.9 1.9-5 2.2-5 .4 0-.7.5-1.6 1-1.9.6-.4.8-1.1.5-1.6-.5-.8 1.6-1.4 3.8-1 2 .3 1.7-3.1-.4-4.9-3-2.4-4.3-2.5-3.5-.3zm321.6 5.1c-3 1.4-11.8 8.3-12.4 9.7-.4 1.1.2 1.5 2.2 1.5 3.7 0 7.6 5.1 7.4 9.6-.1 1.8.3 3.6.9 3.9 1 .7 4.5-1.2 7.3-4 2-2 1.2-3.9-1.1-2.6-1.3.7-2.2 0-4.1-2.7-4-5.9-4.5-8-2.1-9.3 1.5-.8 2.4-.8 3.2 0 2.9 2.9 5.4-.3 3.5-4.4-1.1-2.5-2.1-2.9-4.8-1.7zm-300.2 11.6c-2.2 3-1.4 3.7 3.3 3 3.1-.5 3.9-.3 4.8 1.4 1.9 3.6 1.4 4.5-2.3 3.9-4.6-.7-5.1.1-1.9 3.5 3.1 3.3 2.1 5.5-2.1 4.4-3.4-.8-6.1-3.6-4.5-4.6 1.3-.9.6-4-.9-4-.5 0-1.5.7-2.3 1.6-1.1 1.3-1 2.1.6 5 2.3 4.3 4.6 5.6 8.8 5.2 2.3-.2 3.5-1.1 4.7-3.3.8-1.6 2.3-3.8 3.3-4.9 1.8-2.1 2.2-5.3.9-7.2-1-1.6-8.3-6.4-9.6-6.4-.6 0-1.9 1.1-2.8 2.4zm268.9-.7c-1 .9-.9 4.1.2 4.7 1.5 1 4.2-1.9 3.5-3.7-.6-1.7-2.5-2.3-3.7-1zm.5 7.9c-1.8.8-3.2 2-2.9 2.7.5 1.4 4.8 1.1 5.8-.5.6-1 5.9 8.6 5.9 10.8 0 .5-1.4 1.7-3.1 2.7-2.5 1.4-2.9 2-1.9 3.1 1 1.2 1.6 1.2 4.8-.1 2-.8 4.8-2.3 6.2-3.3 1.4-.9 3.3-2 4.3-2.3 1.8-.7 2.3-3.2.7-4.2-.5-.3-2.3.1-3.9 1-3.4 1.7-3.1 1.9-7.2-6-2.9-5.6-3.9-6-8.7-3.9zm-247.6 5.9c-.3.9-.4 2.1 0 2.6.8 1.3 5.2 1.1 5.7-.4.3-.9.8-.8 2 .3 1.1 1.1 1.3 2.1.6 3.8-.8 2.1-1 2.2-3.3.7-3-2-7.5-1.3-9.8 1.6-3.1 3.7.9 8.7 7.4 9.3.9 0 2.7 1.1 4.1 2.4 1.4 1.3 3 2 3.9 1.7 2.1-.8 3.1-4.5 1.2-4.5-1.9 0-1.7-.8 1.1-5.5 3.2-5.1 3.1-6.5-.4-9.9-3.7-3.5-11.4-4.8-12.5-2.1zm4.7 10c1.9.8 3.8 1.1 4.2.7.4-.4.1.5-.6 2-1 2.4-1.8 2.8-5.1 2.6-4.1-.1-6.5-2.5-5.4-5.4.7-1.8 2.5-1.8 6.9.1zm25.4-7.8c-1.3 1.2-.7 4 1.2 5.7 1.5 1.3 2 1.4 2.4.4.4-.9.6-.8.6.3.1 2.1 5.3 3 7.5 1.4 1.9-1.5 2.1-4.4.3-5.1-.8-.3-2.6 0-4 .5-2.5 1-2.7.8-2.7-1.4 0-2-.5-2.5-2.3-2.5-1.3 0-2.7.3-3 .7zm197.3 3c-7.1 3.4-7.3 3.7-4.5 4.2 2.4.5 3.2 1.4 4.1 4.6 2 6.5 1.8 7.8-1 7.1-3-.7-4.2 1.7-1.9 3.9 1.3 1.4 1.8 1.4 3.7.2 2.6-1.7 3.2-5.9 1.5-10-1-2.4-1-3.2-.1-3.5.7-.2.9-.8.6-1.4-.4-.6.2-.8 1.2-.6 1.2.2 1.9 1.2 2 2.6.1 1.3.6 2.8 1.2 3.4 1.1 1.1.4 4.8-1 4.8-.5 0-.6.5-.3 1.1.9 1.3 6.5.2 8.5-1.7 1.3-1.3 1.2-1.5-.6-2-2-.5-5.2-5.8-6-9.8-.2-1 .3-2.5 1.1-3.3 1.4-1.4 1.2-3.4-.3-3.2-.4 0-4.1 1.6-8.2 3.6zm-202.1 4.1c1.2.9 1.2 1.7.1 5.5-.6 2.5-.9 5-.6 5.5.7 1.2-.3 4.4-1.3 3.8-.3-.2-1.5 0-2.6.4-1.9.7-1.9.8.5 1.8 2.1.8 2.8.6 4.2-1.1 1-1.2 1.8-1.9 1.8-1.5 0 .4 1.2-.4 2.6-1.7 3.2-2.9 4.3-3.1 5.9-.8 1.1 1.4 1.3 1.2 1.9-2 .6-3.1 1.1-3.7 3.2-3.7 3.7 0 2-1.7-2.2-2.2-2.9-.3-3.7 0-4.4 1.7-.4 1.1-1.5 2.7-2.5 3.5-1.4 1.2-1.8 1.2-2.6-.1-1.3-2.1-1.1-4 .6-5.3 2-1.5.6-3.3-3-4.1-2.1-.5-2.6-.4-1.6.3zm177.4 5.2c-1.3.5-2.3.7-2.3.3 0-.3-1 .6-2.1 2.1-3.8 4.9-2.2 13.8 3.1 16.6 2.3 1.3 9.1-.2 10.9-2.3 2-2.4 2.3-8.4.6-11.6-1.2-2.4-6.2-6.3-7.7-6-.2 0-1.3.4-2.5.9zm7.3 5.2c3.6 3.9.7 11.8-4.3 11.8-2.1 0-6.2-3-6.4-4.8 0-.4-.2-1.6-.4-2.7-1.3-6.5 6.4-9.6 11.1-4.3zM277.5 602c-.3.5 0 1.2.5 1.5.7.4.8 1.9.5 3.7-.4 1.7-.8 3.6-1 4.2-.8 4.2-1.8 6.5-2.5 6.1-.5-.3-1.1-.1-1.4.4-.3.5.8 1.4 2.6 2 3.2 1.1 5.2.6 3-.8-.9-.5-1-1.5-.2-3.8 1.1-3 1.2-3 4.8-2 4.7 1.4 4.4 1 3.6 4.1-.3 1.4-1.2 2.6-2 2.6-2.6 0-.3 2.8 2.7 3.2 2.6.4 2.8.2 2.3-1.6-1-3-.9-3.6.5-8.8.8-3 1.9-4.8 3.2-5.1 3.1-.8 2.2-2.4-1.7-3.2-4.4-.8-4.9-.3-3.2 2.5 1.1 1.8 1 2.3-.7 3.6-1.1.8-2.1 1.1-2.3.6-.1-.5-1.4-.7-2.7-.4-2.2.4-2.5.1-2.5-2.3 0-1.8.6-2.8 2-3.2 1.1-.3 2-.9 2-1.2 0-1.2-6.9-3-7.5-2.1zm125.2 2.4c-3.7.7-7 1-7.2.7-.3-.2-.5.3-.5 1.1 0 .9.8 1.8 1.8 2 1 .3 1.9 1.1 1.9 1.9.1.8.4 3.7.7 6.5.5 4.2.3 5.3-1 5.8-3 1.2-.2 2.6 4.6 2.3 2.8-.1 5-.4 5-.7 0-.3 1.8-.6 4.1-.6 5.4-.2 7.2-1.9 4.2-4.2-1.9-1.5-2.1-2.5-1.9-9 .3-8.3.9-8-11.7-5.8zm7 3.8c0 .7.3 3.6.7 6.5.6 4.4.4 5.3-1.1 6.1-3.4 1.8-5.9-.2-7-5.6-.6-3-.6-5.7-.1-6.6 1.1-1.9 7.5-2.2 7.5-.4z"/><path d="M260.1 609.1c-.8 1.9-1.8 2.8-2.7 2.5-.8-.3-1.4-.1-1.4.3 0 1 2.4 2.1 4.4 2.1.7 0 1.2-1.6 1.3-4 .1-2.2.1-4 0-4s-.8 1.4-1.6 3.1zm61.4 1.4c-.3.8-.7 2.2-1 3.1-.9 2.9.7 3.6 3.1 1.3 1.3-1.2 2.5-2.1 2.5-1.8.1.2.3 1.3.5 2.4.1 1.1.5 3.6.8 5.5.4 2.8.1 3.8-1.7 5.2-1.9 1.5-2 1.9-.7 2.8 1.9 1.3 8.2.9 8.7-.6.2-.6-.6-1.4-1.8-1.7-1.1-.3-1.8-1-1.5-1.6.4-.5.7-3.2.7-5.9.1-4.2.4-4.9 1.9-4.5 1.1.3 1.6 1.1 1.3 2.2-.3 1.2.2 1.7 1.6 1.7 1.2 0 2.1-.3 2.2-.6 0-.3.2-1.4.4-2.6.8-4-1.5-5.4-9.3-5.9-5.9-.5-7.3-.3-7.7 1zm31.5-.7c-.8.2-2.2 1.1-3.1 1.9-2 1.7-1.3 5.7.8 4.9.8-.3 1.9-.6 2.4-.6s.9-.6.9-1.4c0-1.9 1.4-2.8 3.3-2 2.1.8 1.9 5.6-.2 5.2-3.4-.5-7.1 1.3-8.6 4.2-1.5 2.9-1.4 3.1.9 5.4 2.3 2.4 5.9 2.9 9.7 1.2.8-.4 2.8-.2 4.4.4 2.2.9 3.2.8 4.3-.4 1.8-1.8.9-4.8-1.2-4-1.2.5-1.5-.5-1.4-5.6.1-4-.4-6.6-1.3-7.5-1.5-1.5-8.4-2.6-10.9-1.7zm8.8 12.5c-.2 1.1-1.6 2.8-3.3 3.7-3.8 2.1-7.5.8-7.5-2.6 0-2.4 1-2.8 7.3-3.1 3.3-.1 3.8.2 3.5 2z"/></svg>