<svg width="48" height="48" viewBox="0 0 48 48" fill="none" xmlns="http://www.w3.org/2000/svg">
<path fill-rule="evenodd" clip-rule="evenodd" d="M0 24C0 10.7452 10.7452 0 24 0C37.2548 0 48 10.7452 48 24C48 37.2548 37.2548 48 24 48C10.7452 48 0 37.2548 0 24ZM26.5016 38.1115V25.0542H30.1059L30.5836 20.5546H26.5016L26.5077 18.3025C26.5077 17.1289 26.6192 16.5001 28.3048 16.5001H30.5581V12H26.9532C22.6231 12 21.0991 14.1828 21.0991 17.8536V20.5551H18.4V25.0547H21.0991V38.1115H26.5016Z" fill="url(#fb)"/>
<defs>
<linearGradient id="fb" x1="-12" y1="12" x2="40.5" y2="35.5" gradientUnits="userSpaceOnUse">
<stop stop-color="#A72DFF"/>
<stop offset="1" stop-color="#622A7C"/>
</linearGradient>
</defs>
</svg>
