<svg width="48" height="48" viewBox="0 0 48 48" fill="none" xmlns="http://www.w3.org/2000/svg">
<path fill-rule="evenodd" clip-rule="evenodd" d="M0 24C0 10.7452 10.7452 0 24 0C37.2548 0 48 10.7452 48 24C48 37.2548 37.2548 48 24 48C10.7452 48 0 37.2548 0 24ZM24.0012 11.2C20.5249 11.2 20.0886 11.2152 18.7233 11.2773C17.3606 11.3397 16.4305 11.5555 15.6166 11.872C14.7747 12.1989 14.0606 12.6363 13.3491 13.348C12.6371 14.0595 12.1997 14.7736 11.8717 15.6152C11.5544 16.4294 11.3384 17.3598 11.2771 18.7219C11.216 20.0873 11.2 20.5238 11.2 24.0001C11.2 27.4764 11.2155 27.9114 11.2773 29.2767C11.34 30.6394 11.5557 31.5695 11.872 32.3834C12.1992 33.2253 12.6365 33.9394 13.3483 34.6509C14.0595 35.3629 14.7736 35.8013 15.615 36.1283C16.4294 36.4448 17.3598 36.6605 18.7222 36.7229C20.0876 36.7851 20.5236 36.8003 23.9996 36.8003C27.4762 36.8003 27.9111 36.7851 29.2765 36.7229C30.6391 36.6605 31.5703 36.4448 32.3848 36.1283C33.2264 35.8013 33.9394 35.3629 34.6506 34.6509C35.3626 33.9394 35.8 33.2253 36.128 32.3837C36.4427 31.5695 36.6587 30.6391 36.7227 29.277C36.784 27.9116 36.8 27.4764 36.8 24.0001C36.8 20.5238 36.784 20.0876 36.7227 18.7222C36.6587 17.3595 36.4427 16.4294 36.128 15.6155C35.8 14.7736 35.3626 14.0595 34.6506 13.348C33.9386 12.636 33.2266 12.1987 32.384 11.872C31.5679 11.5555 30.6373 11.3397 29.2746 11.2773C27.9092 11.2152 27.4746 11.2 23.9972 11.2H24.0012Z" fill="url(#paint0_linear_8_56)"/>
<path fill-rule="evenodd" clip-rule="evenodd" d="M22.8529 13.5071C23.1937 13.5066 23.574 13.5071 24.0012 13.5071C27.4188 13.5071 27.8239 13.5194 29.1735 13.5807C30.4215 13.6378 31.0989 13.8463 31.5501 14.0215C32.1474 14.2535 32.5733 14.5308 33.021 14.9788C33.469 15.4268 33.7464 15.8535 33.9789 16.4509C34.1541 16.9015 34.3629 17.5789 34.4197 18.8269C34.481 20.1762 34.4944 20.5816 34.4944 23.9976C34.4944 27.4136 34.481 27.819 34.4197 29.1683C34.3626 30.4163 34.1541 31.0937 33.9789 31.5443C33.7469 32.1417 33.469 32.567 33.021 33.0148C32.573 33.4628 32.1477 33.7401 31.5501 33.9721C31.0994 34.1481 30.4215 34.3561 29.1735 34.4132C27.8242 34.4745 27.4188 34.4878 24.0012 34.4878C20.5833 34.4878 20.1782 34.4745 18.8289 34.4132C17.5809 34.3556 16.9035 34.147 16.4521 33.9718C15.8547 33.7398 15.428 33.4625 14.98 33.0145C14.532 32.5665 14.2547 32.1409 14.0222 31.5433C13.847 31.0926 13.6382 30.4153 13.5814 29.1673C13.52 27.8179 13.5078 27.4126 13.5078 23.9944C13.5078 20.5762 13.52 20.173 13.5814 18.8237C13.6384 17.5757 13.847 16.8983 14.0222 16.4471C14.2542 15.8498 14.532 15.4231 14.98 14.9751C15.428 14.5271 15.8547 14.2498 16.4521 14.0172C16.9033 13.8412 17.5809 13.6332 18.8289 13.5759C20.0097 13.5226 20.4673 13.5066 22.8529 13.5039V13.5071ZM30.8338 15.6324C29.9858 15.6324 29.2978 16.3197 29.2978 17.1679C29.2978 18.0159 29.9858 18.7039 30.8338 18.7039C31.6818 18.7039 32.3698 18.0159 32.3698 17.1679C32.3698 16.3199 31.6818 15.6324 30.8338 15.6324ZM24.0012 17.4271C20.371 17.4271 17.4278 20.3704 17.4278 24.0005C17.4278 27.6307 20.371 30.5726 24.0012 30.5726C27.6314 30.5726 30.5735 27.6307 30.5735 24.0005C30.5735 20.3704 27.6314 17.4271 24.0012 17.4271Z" fill="url(#paint1_linear_8_56)"/>
<path fill-rule="evenodd" clip-rule="evenodd" d="M24.0011 19.7334C26.3574 19.7334 28.2678 21.6436 28.2678 24.0001C28.2678 26.3564 26.3574 28.2668 24.0011 28.2668C21.6445 28.2668 19.7344 26.3564 19.7344 24.0001C19.7344 21.6436 21.6445 19.7334 24.0011 19.7334Z" fill="url(#paint2_linear_8_56)"/>
<defs>
<linearGradient id="paint0_linear_8_56" x1="-9" y1="11" x2="54.5" y2="45" gradientUnits="userSpaceOnUse">
<stop stop-color="#A72DFF"/>
<stop offset="1" stop-color="#622A7C"/>
</linearGradient>
<linearGradient id="paint1_linear_8_56" x1="9.57283" y1="18.3127" x2="37.3348" y2="33.1793" gradientUnits="userSpaceOnUse">
<stop stop-color="#A72DFF"/>
<stop offset="1" stop-color="#622A7C"/>
</linearGradient>
<linearGradient id="paint2_linear_8_56" x1="18.1344" y1="21.689" x2="29.4233" y2="27.7335" gradientUnits="userSpaceOnUse">
<stop stop-color="#A72DFF"/>
<stop offset="1" stop-color="#622A7C"/>
</linearGradient>
</defs>
</svg>
