<svg width="16" height="16" viewBox="0 0 16 16" fill="none" xmlns="http://www.w3.org/2000/svg">
<path d="M5.10139 5.73954C5.62511 6.83033 6.33904 7.85266 7.24319 8.75681C8.14734 9.66096 9.16967 10.3749 10.2605 10.8986C10.3543 10.9437 10.4012 10.9662 10.4606 10.9835C10.6715 11.045 10.9306 11.0008 11.1092 10.8729C11.1595 10.8369 11.2025 10.7939 11.2885 10.7079C11.5516 10.4448 11.6831 10.3133 11.8154 10.2273C12.3142 9.90295 12.9572 9.90295 13.456 10.2273C13.5883 10.3133 13.7198 10.4448 13.9829 10.7079L14.1295 10.8545C14.5294 11.2544 14.7294 11.4543 14.838 11.6691C15.054 12.0961 15.054 12.6005 14.838 13.0276C14.7294 13.2423 14.5294 13.4423 14.1295 13.8421L14.0109 13.9608C13.6124 14.3593 13.4131 14.5585 13.1422 14.7107C12.8416 14.8796 12.3747 15.001 12.0299 15C11.7192 14.9991 11.5068 14.9388 11.0821 14.8182C8.79956 14.1704 6.64573 12.948 4.84885 11.1511C3.05197 9.35427 1.82961 7.20044 1.18176 4.91791C1.06121 4.49318 1.00093 4.28082 1.00001 3.97009C0.99898 3.62529 1.1204 3.15839 1.28927 2.85778C1.44145 2.58686 1.64072 2.3876 2.03924 1.98908L2.15785 1.87046C2.55775 1.47057 2.75769 1.27062 2.97243 1.16201C3.39951 0.945997 3.90386 0.945997 4.33093 1.16201C4.54567 1.27062 4.74562 1.47057 5.14551 1.87046L5.29214 2.0171C5.55521 2.28016 5.68674 2.4117 5.77274 2.54396C6.09705 3.04277 6.09705 3.68581 5.77274 4.18461C5.68674 4.31688 5.55521 4.44842 5.29214 4.71148C5.20613 4.7975 5.16312 4.84051 5.12712 4.89078C4.99919 5.06944 4.95502 5.32848 5.01651 5.53944C5.03382 5.5988 5.05634 5.64571 5.10139 5.73954Z" stroke="#7A4593" stroke-width="1.5" stroke-linecap="round" stroke-linejoin="round"/>
</svg>
