<svg width="47" height="47" viewBox="0 0 47 47" fill="none" xmlns="http://www.w3.org/2000/svg">
<path d="M23.25 0C10.4055 0 0 10.407 0 23.25C0 36.093 10.407 46.5 23.25 46.5C36.0945 46.5 46.5 36.093 46.5 23.25C46.5 10.407 36.093 0 23.25 0ZM34.6695 15.9285L30.8535 33.9105C30.5715 35.1855 29.8125 35.4945 28.7535 34.8945L22.941 30.6105L20.1375 33.3105C19.8285 33.6195 19.566 33.882 18.966 33.882L19.3785 27.966L30.15 18.234C30.6195 17.8215 30.0465 17.5875 29.427 18L16.1145 26.3805L10.377 24.5895C9.1305 24.1965 9.102 23.343 10.6395 22.743L33.0555 14.0985C34.0965 13.7235 35.0055 14.352 34.668 15.927L34.6695 15.9285Z" fill="url(#paint0_linear_8_55)"/>
<defs>
<linearGradient id="paint0_linear_8_55" x1="-2" y1="22" x2="45" y2="38" gradientUnits="userSpaceOnUse">
<stop stop-color="#A72DFF"/>
<stop offset="1" stop-color="#622A7C"/>
</linearGradient>
</defs>
</svg>
