<?xml version="1.0" encoding="utf-8"?><svg viewBox="0 0 48 48" xmlns="http://www.w3.org/2000/svg" xmlns:xlink="http://www.w3.org/1999/xlink"><style>:root>svg{display:none}:root>svg:target{display:block}</style><svg viewBox="0 0 17 14" id="email" xmlns="http://www.w3.org/2000/svg"><path d="M15.625 11.5 10.643 7M6.357 7l-4.982 4.5M1 3.25l6.124 4.287c.496.347.744.52 1.013.587.238.06.488.06.726 0 .27-.067.517-.24 1.013-.587L16 3.25M4.6 13h7.8c1.26 0 1.89 0 2.371-.245a2.25 2.25 0 0 0 .984-.984C16 11.291 16 10.661 16 9.4V4.6c0-1.26 0-1.89-.245-2.371a2.25 2.25 0 0 0-.984-.984C14.291 1 13.662 1 12.4 1H4.6c-1.26 0-1.89 0-2.371.245a2.25 2.25 0 0 0-.984.984C1 2.709 1 3.339 1 4.6v4.8c0 1.26 0 1.89.245 2.371.216.424.56.768.984.984C2.709 13 3.339 13 4.6 13Z"/></svg><svg viewBox="0 0 48 48" id="fb" xmlns="http://www.w3.org/2000/svg"><path fill-rule="evenodd" clip-rule="evenodd" d="M0 24C0 10.745 10.745 0 24 0s24 10.745 24 24-10.745 24-24 24S0 37.255 0 24Zm26.502 14.111V25.054h3.604l.478-4.5h-4.082l.006-2.252c0-1.173.111-1.802 1.797-1.802h2.253V12h-3.605c-4.33 0-5.854 2.183-5.854 5.854v2.701H18.4v4.5h2.7V38.11h5.402Z"/></svg><svg viewBox="0 0 48 48" id="inst" xmlns="http://www.w3.org/2000/svg"><path fill-rule="evenodd" clip-rule="evenodd" d="M0 24C0 10.745 10.745 0 24 0s24 10.745 24 24-10.745 24-24 24S0 37.255 0 24Zm24.001-12.8c-3.476 0-3.912.015-5.278.077-1.362.063-2.293.279-3.106.595a6.268 6.268 0 0 0-2.268 1.476 6.284 6.284 0 0 0-1.477 2.267c-.318.814-.534 1.745-.595 3.107-.061 1.365-.077 1.802-.077 5.278 0 3.476.016 3.911.077 5.277.063 1.362.279 2.293.595 3.106a6.271 6.271 0 0 0 1.476 2.268 6.268 6.268 0 0 0 2.267 1.477c.814.317 1.745.532 3.107.595 1.366.062 1.802.077 5.278.077 3.476 0 3.911-.015 5.276-.077 1.363-.063 2.294-.278 3.109-.595a6.263 6.263 0 0 0 2.266-1.477 6.284 6.284 0 0 0 1.477-2.267c.315-.814.53-1.745.595-3.107.061-1.365.077-1.8.077-5.277 0-3.476-.016-3.912-.077-5.278-.064-1.363-.28-2.293-.595-3.107a6.283 6.283 0 0 0-1.477-2.267 6.256 6.256 0 0 0-2.267-1.476c-.816-.316-1.747-.532-3.11-.595-1.365-.062-1.8-.077-5.277-.077h.004Z"/><path fill-rule="evenodd" clip-rule="evenodd" d="M22.853 13.507H24c3.418 0 3.823.012 5.172.074 1.249.057 1.926.265 2.377.44.597.232 1.023.51 1.471.958.448.448.725.875.958 1.472.175.45.384 1.128.44 2.376.062 1.35.075 1.755.075 5.17 0 3.417-.013 3.822-.074 5.171-.057 1.248-.266 1.926-.441 2.376a3.958 3.958 0 0 1-.958 1.47 3.958 3.958 0 0 1-1.47.958c-.452.176-1.13.384-2.377.441-1.35.062-1.755.075-5.173.075s-3.823-.014-5.172-.075c-1.248-.057-1.925-.266-2.377-.441a3.964 3.964 0 0 1-1.472-.958 3.967 3.967 0 0 1-.958-1.47c-.175-.451-.384-1.129-.44-2.377-.062-1.35-.074-1.754-.074-5.173 0-3.418.012-3.821.073-5.17.057-1.248.266-1.926.441-2.377.232-.597.51-1.024.958-1.472a3.973 3.973 0 0 1 1.472-.958c.451-.176 1.129-.384 2.377-.441 1.18-.053 1.638-.07 4.024-.072v.003Zm7.98 2.125a1.536 1.536 0 1 0 0 3.072 1.536 1.536 0 0 0 0-3.072Zm-6.832 1.795a6.574 6.574 0 1 0 0 13.148 6.574 6.574 0 0 0 0-13.148Z"/><path fill-rule="evenodd" clip-rule="evenodd" d="M24.001 19.733a4.267 4.267 0 1 1 0 8.534 4.267 4.267 0 0 1 0-8.534Z"/></svg><svg viewBox="0 0 15 18" id="location" xmlns="http://www.w3.org/2000/svg"><path d="M7.5 9.4c1.346 0 2.438-1.075 2.438-2.4S8.845 4.6 7.5 4.6 5.062 5.675 5.062 7 6.155 9.4 7.5 9.4Z"/><path d="M7.5 17c1.625-3.2 6.5-5.265 6.5-9.6C14 3.865 11.09 1 7.5 1S1 3.865 1 7.4c0 4.335 4.875 6.4 6.5 9.6Z"/></svg><svg viewBox="0 0 16 16" id="phone" xmlns="http://www.w3.org/2000/svg"><path d="M5.101 5.74a10.988 10.988 0 0 0 2.142 3.017 10.987 10.987 0 0 0 3.018 2.142c.093.045.14.067.2.085.21.061.47.017.648-.111.05-.036.094-.08.18-.165.263-.263.394-.395.526-.48a1.505 1.505 0 0 1 1.641 0c.132.085.264.217.527.48l.146.146c.4.4.6.6.709.815.216.427.216.931 0 1.359-.109.214-.309.414-.708.814l-.12.119c-.398.398-.597.598-.868.75-.3.169-.767.29-1.112.289-.31 0-.523-.061-.948-.182a14.325 14.325 0 0 1-6.233-3.667 14.325 14.325 0 0 1-3.667-6.233C1.062 4.493 1 4.28 1 3.97c-.001-.345.12-.812.29-1.112.151-.271.35-.47.75-.869l.118-.119c.4-.4.6-.6.814-.708a1.505 1.505 0 0 1 1.359 0c.215.109.415.309.815.708l.146.147c.263.263.395.395.48.527a1.505 1.505 0 0 1 0 1.64c-.085.133-.217.264-.48.527-.086.087-.129.13-.165.18a.787.787 0 0 0-.11.648c.017.06.04.107.084.2Z"/></svg><svg viewBox="0 0 47 47" id="telegram" xmlns="http://www.w3.org/2000/svg"><path d="M23.25 0C10.405 0 0 10.407 0 23.25S10.407 46.5 23.25 46.5c12.844 0 23.25-10.407 23.25-23.25S36.093 0 23.25 0Zm11.42 15.928L30.852 33.91c-.282 1.276-1.04 1.585-2.1.985L22.94 30.61l-2.803 2.7c-.31.31-.572.572-1.172.572l.412-5.916 10.772-9.732c.47-.413-.103-.647-.723-.234l-13.313 8.38-5.737-1.79c-1.247-.393-1.275-1.247.262-1.847l22.417-8.644c1.04-.376 1.95.253 1.612 1.828l.002.002Z"/></svg></svg>